<?xml version="1.0" standalone="no"?>
<!DOCTYPE svg PUBLIC "-//W3C//DTD SVG 1.1//EN" "http://www.w3.org/Graphics/SVG/1.1/DTD/svg11.dtd" >
<svg xmlns="http://www.w3.org/2000/svg">
<metadata></metadata>
<defs>
<font id="CorpulentCapsShadow(BRK)Rg" horiz-adv-x="1419" >
<font-face units-per-em="2048" ascent="1638" descent="-410" />
<missing-glyph horiz-adv-x="1024" />
<glyph unicode=" "  horiz-adv-x="1024" />
<glyph unicode="&#x09;" horiz-adv-x="1024" />
<glyph unicode="&#xa0;" horiz-adv-x="1024" />
<glyph unicode="!" horiz-adv-x="657" d="M31 213q0 86 45 146.5t117 82.5l-60 60q-4 4 -6 5t-6 5q-41 25 -66 74q-25 37 -24 84v583q0 88 83 153q75 58 178 58q55 0 111 -29.5t91 -86.5l63 -62h-2l4 -2q30 -30 51 -78l15 -47v-592q0 -66 -48.5 -116t-109.5 -72q6 -8 12 -15.5t13 -17.5l63 -63q70 -70 70 -181 q0 -103 -75 -172q-72 -67 -167 -67q-105 0 -174 67l-66 66q-112 70 -112 217zM72 215q0 -90 55 -152.5t154 -62.5q80 0 143 57.5t63 148.5t-56 150.5t-147 59.5t-151.5 -55.5t-60.5 -145.5zM72 670q0 -41 20 -68q18 -35 42.5 -50t56.5 -31.5t77.5 -18.5t82 10t67.5 36 q69 52 69 122v590l-4 14l-8 22q-25 61 -79 94t-102 33t-85 -12t-67 -35q-70 -51 -70 -123v-583z" />
<glyph unicode="&#x22;" horiz-adv-x="1036" d="M31 1061v182q0 95 82 161q76 62 176 62t184 -84q43 41 82 61.5t105 18.5q94 -3 161 -53q40 -35 58 -61l75 -74q16 -16 27 -37l-4 4q29 -37 29 -88v-205q0 -84 -84 -148q-72 -57 -141.5 -57t-100.5 9l-53 26l-49 47q-71 -82 -195 -82q-86 5 -160 54q-2 2 -4 2l-80 80 q-6 4 -12 7t-10 7h-2v2q-6 0 -6 4q-78 72 -78 162zM72 1061q0 -72 67 -133q16 -10 47 -26.5t97 -20.5q124 0 188 102l76 -76l43 -20q25 -6 63.5 -6t75.5 12t67 35q72 52 72 123v204q0 41 -20 68q-20 39 -75.5 67.5t-113.5 32.5q-66 0 -102.5 -24.5t-85.5 -77.5l-6 6l-10 12 q-60 86 -172 86q-82 0 -143 -51q-68 -56 -68 -131v-182z" />
<glyph unicode="#" horiz-adv-x="1411" d="M31 458q0 141 121 220v63q-59 41 -80 74q-41 78 -41 144.5t31.5 128t91.5 98.5l10 74q49 209 244 206q118 0 192 -96l72 -74q59 170 239 170q142 0 205 -102l70 -68q46 -46 63 -133h-2q14 -55 17 -82l32 -32l-4 4q7 -5 19 -17q70 -70 69.5 -159t-28 -138t-86.5 -94v-63 l53 -54q45 -45 51 -90h-2q12 -37 12 -98q0 -123 -118 -201q-6 -23 -7.5 -49.5t-5.5 -36.5q-23 -88 -75 -139t-140 -51t-143 26q-37 23 -55 41l-64 64q-18 10 -37 29q-29 -72 -81 -116t-128.5 -44t-136.5 26q-23 14 -45 37l-61 62l-7 2q-104 64 -122 241l-19 19 q-104 67 -104 208zM72 464q0 -62 30 -120q32 -53 91 -78q0 -176 112 -246q43 -20 115 -20q138 0 186 154q15 62 15 94h73q0 -162 119 -230q39 -18 115 -18q167 0 192 212q4 34 8 54q115 70 115 191q0 43 -10 78q-6 37 -39 69l-66 53v109l7 6q55 41 81.5 85t26.5 112 q0 118 -115 190q0 45 -16 101q-30 165 -201 165q-177 0 -213 -196q-4 -25 -4 -51h-73q0 102 -53 172q-58 75 -160 75q-61 0 -103 -22q-72 -35 -100 -143l-12 -101q-57 -20 -89 -76.5t-32 -115.5q0 -133 121 -201v-109q-57 -27 -89 -79t-32 -114zM621 676v74h73v-74h-73z M682 98l2 -2z" />
<glyph unicode="$" horiz-adv-x="1417" d="M31 211q0 74 42 139.5t111 93.5l21 11l22 8h101q-27 20 -45 41l-52 49q-137 98 -188 288q-12 45 -12 124q2 178 103.5 311t273.5 180q11 94 55 170q41 47 86 71.5t115 24.5t123 -30.5t81 -79.5l68 -66q35 -35 49 -76h98l25 -8v-2l39 -12q66 -31 102 -90l68 -66 q70 -70 69 -162q0 -168 -147 -241l-29 -12l-20 -7h-100q68 -47 116 -118l43 -41q137 -137 137 -339q0 -382 -376 -495l-13 -84q-10 -50 -42 -94.5t-65 -58.5q-66 -29 -122 -29q-109 0 -176 65l-70 70q-35 22 -50 44q-34 48 -42 71h-84l-27 8l-26 10q-39 16 -84 58l-59 59 q-119 77 -119 215zM72 208.5q0 -63.5 37 -118.5q35 -47 96 -76l24 -10l19 -6h198q0 -110 54 -176q52 -74 164 -74q59 0 98 23q74 30 100 137l12 94l7 6q174 47 271 161t97 279t-75.5 280.5t-219.5 166.5l-73 23q-41 12 -66 12h-297l-18 14v43l8 6l10 4l14 7l11 4h542l15 4 l22 10q59 29 93 80t34 115.5t-35.5 118t-97.5 79.5l-24 8l-17 7h-201q0 53 -14 96q-12 66 -65.5 110.5t-121.5 44.5t-105.5 -18t-69.5 -57q-35 -57 -41 -99.5t-11 -79.5l-6 -6q-165 -35 -267 -161q-101 -126 -101 -295q0 -84 8 -106.5t14 -43.5q31 -102 111 -184t198 -111 l56 -14q2 0 41 -6h303l18 -15v-49l-12 -6l-25 -8h-548l-17 -6l-20 -10q-57 -25 -92 -79.5t-35 -118z" />
<glyph unicode="%" horiz-adv-x="1665" d="M31 1223q0 86 26 145q51 104 138.5 165.5t207.5 61.5q66 0 146 -30q111 -51 170 -138l53 -51q-2 0 -6 4q66 -56 94 -139l109 145q37 47 88 62v2q43 18 106.5 18t120.5 -33.5t92 -88.5l60 -60q71 -71 71 -170q0 -86 -53 -162l-276 -366q68 -4 136 -34q101 -45 156 -122 l64 -63q100 -100 100 -260q0 -59 -28 -148q-26 -59 -82 -115q-100 -108 -262 -108q-155 0 -267 110l-53 54q-92 63 -131 157q-8 14 -10 29l-99 -131q-73 -92 -196 -92q-101 0 -172 69l-60 60q-80 46 -110 137l-6 27v104q0 29 16 57l27 43l286 383q-66 0 -136 34t-111 75 l-62 61q-25 16 -45 37q-102 115 -102 271zM72 1223q0 -137 92 -242q62 -62 159 -88q37 -10 91.5 -10t118 24.5t110.5 69.5t63 85q37 87 37 175t-55 167t-153 124q-66 27 -132 26q-210 0 -307 -202q-24 -59 -24 -129zM199 160l2 -8q25 -70 78 -110t112 -40q121 0 182 78 l750 997q47 68 47 142q0 89 -62 148q-64 60 -149 60q-43 0 -85 -14t-73 -51l-765 -1022l-25 -39q-12 -23 -12 -39v-102zM326 1216q0 32 22.5 55t56 23t56 -19.5t22.5 -53t-20 -59.5t-54 -25.5t-58.5 24t-24.5 55.5zM825 210q0 -71 32 -146.5t115 -132t170 -56.5 q165 0 255 98q45 43 62 82q38 87 38 157.5t-25.5 133t-70.5 105.5t-111.5 69.5t-134.5 26.5t-128 -25.5t-105 -72t-71 -107.5t-26 -132zM1079 211q0 33 23.5 56.5t55.5 24.5t56.5 -22.5t24.5 -56.5t-22 -55q-18 -23 -52.5 -23t-60 21.5t-25.5 54.5z" />
<glyph unicode="&#x26;" horiz-adv-x="1409" d="M31 463l4 88q6 43 20 82h-2l27 49l14 31q-35 66 -49 121t-14 144t31 166q61 149 214 230q32 19 125 60l11 84q42 204 245 204q144 0 205 -112l62 -60q36 -40 53 -80h94l29 -8l10 -2v-2l33 -10q63 -31 96 -84l72 -70q20 -25 35 -49l2 -2q33 -59 32.5 -136t-44.5 -135 q-62 -80 -148 -102h-332q4 -4 5 -9t5 -9l68 -66q72 -72 72 -189q0 -64 -52 -134h133l17 -6q104 -52 143 -111l70 -70q63 -67 63 -153q0 -183 -137 -238l-16 -4l2 -2l-21 -8l-37 -10h-163q-27 -176 -146 -231q-43 -19 -101 -19q-108 0 -171 63l-72 72q-88 62 -110 195 q-8 4 -16.5 8t-23.5 13q-46 29 -63 46q-29 18 -43 37l-49 47q-8 6 -14 11.5t-11 9.5h2q-29 18 -43 39q-116 125 -116 311zM71.5 971.5q0.5 -80.5 15.5 -133t50 -111.5l6 -12l-2 -6l-16 -27l-8 -16l-11 -17l-10 -24q-14 -31 -20 -80l-4 -82q0 -218 157 -330q65 -58 211 -106 q0 -192 114 -255q42 -24 103 -24q189 0 217 250h195l8 2l17 6l18 8q73 27 102 82.5t29 114.5q0 151 -164 211h-434q-33 0 -77 11t-68 28q8 12 32 22l54 11l55 6q25 0 41 4q78 8 132 68.5t54 136.5t-41 133t-105.5 74t-97.5 18q-53 0 -94 16l-16 4l-14 15l12 6l31 10l24 6 l45 10l39 7h428l11 2q153 66 153 209q0 59 -29 110q-30 62 -120 92l-25 9h-195q0 42 -18 94q-18 68 -66.5 112.5t-135.5 44.5q-167 0 -201 -176l-13 -102q-95 -31 -147 -66q-72 -39 -117 -89t-78 -124q-27 -72 -26.5 -152.5z" />
<glyph unicode="'" horiz-adv-x="655" d="M31 1055v194q4 92 85 155q77 60 178 60q55 0 107 -28.5t86 -77.5l70 -70q37 -41 57 -90q6 -8 7 -20l2 -2l2 -13v-227q0 -83 -83 -140q-79 -53 -159 -53q-117 7 -188 78l-64 62q-6 4 -14 12q-86 61 -86 160zM72 1055q0 -78 69 -127q16 -10 48 -26.5t79.5 -18.5t83 9 t66.5 32q69 45 69 114v222l-2 12q-24 71 -77 111t-107.5 40t-91.5 -13t-67 -36q-66 -50 -70 -125v-194z" />
<glyph unicode="(" horiz-adv-x="1036" d="M31 555v160l2 157q0 67 8 102q6 27 16 62q48 191 225 316q165 114 367 114q74 0 132.5 -31.5t92.5 -84.5l64 -64q68 -63 68 -170q0 -88 -48 -158q-49 -74 -139 -88l-63 -10q-53 -8 -84 -23.5t-35 -62.5v-309q6 -2 11 -2t16 -2l43 -4q113 -31 165 -115l60 -61h-2v2 q76 -67 76 -186.5t-76 -176.5t-194 -57t-226.5 47t-187.5 125l-50 49q-32 20 -57 49q-184 188 -184 422zM72 555q0 -212 172 -393q171 -162 395 -162q98 0 163.5 49t65.5 139q0 183 -163 228l-46 4q-29 6 -45 7t-28 6q-18 8 -56 44l-20 37l-10 41v326q6 63 45 84.5t104 31.5 l62 11q74 11 117 76q40 57 40 143t-62.5 142t-154.5 56t-181 -27.5t-164 -78.5q-160 -109 -210 -293q-22 -106 -22 -154l-2 -157v-160z" />
<glyph unicode=")" horiz-adv-x="1036" d="M31 193.5q0 56.5 15 98.5t44 76q81 97 199 97l53 10q45 23 59 78l2 4l3 16v289l-74 8q-72 12 -121 62l-66 63q-53 35 -83.5 93.5t-30.5 119.5q0 120 78 189q76 69 182 69q154 0 288 -69.5t220 -186.5l37 -36q109 -109 149 -256l12 -52l9 -51v-399q0 -41 -15 -86l-24 -76 q-59 -169 -222 -289q-61 -43 -155 -73t-171 -30q-144 1 -214 75l-70 67q-47 31 -75.5 82t-28.5 107.5zM72 195q0 -86 66.5 -140.5t156.5 -54.5t155 20q105 31 173 78q151 105 208 271l25 73q12 39 12 76v393l-8 52l-10 51q-50 182 -208 298q-156 113 -351 113 q-89 0 -156 -59q-27 -23 -45 -63.5t-18 -102t44 -121t120 -71.5l75 -9q75 0 118 -76q17 -30 17 -65v-285l-4 -28l-8 -27q-32 -65 -82 -84l-53 -10q-33 0 -66.5 -7t-64.5 -27.5t-52 -49.5q-44 -59 -44 -145z" />
<glyph unicode="*" horiz-adv-x="1138" d="M31 1032q0 133 84 195q31 31 88 47v2q37 12 76 18q2 2 2 6l20 39q71 127 221 127q63 0 120.5 -30.5t92.5 -83.5l64 -64q0 -7 18.5 -8.5t36.5 -8.5q25 -10 68 -40q36 -32 53 -60l61 -61q72 -72 72 -182t-107 -193l5 -20q12 -25 12 -68t-19.5 -88t-53.5 -77 q-73 -70 -175 -70l-53 4l-41 16l-33 19l-18 8q-61 -47 -132 -47q-121 0 -192 69l-65 64q-115 76 -115 221l6 43l2 27q-38 38 -68 80t-30 116zM72 1055.5q0 -83.5 24.5 -118t77.5 -87.5l-12 -88q0 -92 59.5 -152.5t150.5 -60.5t146 55l70 -37l35 -14l47 -4q82 0 148 61 q63 57 63 150q0 20 -11 45l-8 45l6 6q103 77 103 184q0 116 -101 178q-10 7 -39 17q-38 13 -96 20l-8 9l-8 16l-4 18q-23 64 -78 95.5t-113 31.5q-129 0 -186 -104l-16 -33q-2 -14 -15 -33q-37 0 -85 -15t-80 -42q-70 -59 -70 -142.5z" />
<glyph unicode="+" horiz-adv-x="1406" d="M29 711q0 96 41 151.5t106 77.5q51 25 131 25q58 4 92 4v147q0 26 17 62l22 41q39 66 92.5 92t119.5 26t126 -31.5t94 -84.5l66 -66q31 -33 47 -72l10 -36h2l13 -33v-47h47q57 0 103 -31t75 -78l63 -61q82 -82 82 -189q0 -194 -175 -238q-50 -12 -103 -12l-92 -2v-153 l-13 -35l-12 -37q-33 -72 -94 -108q-66 -35 -131 -35q-106 0 -176 69l-66 66q-68 43 -98 121l-10 26l-9 29v59q-147 14 -202 78l-66 64q-102 63 -102 211zM70 711q0 -163 148 -200q44 -11 93 -15l129 -2v-189l6 -20l11 -27q25 -66 79 -99.5t114 -33.5t120 31q53 31 78 90 l12 37l10 28v183l127 2q167 0 223 112q21 41 21 89.5t-13.5 86t-37.5 69.5q-56 73 -135 73h-185v184l-10 27l-12 39q-20 57 -76.5 88.5t-116.5 31.5q-124 0 -180 -96l-22 -41q-12 -25 -13 -43v-188h-59q-29 0 -70 -4q-66 0 -121 -23q-120 -41 -120 -190z" />
<glyph unicode="," horiz-adv-x="655" d="M31 49v195q0 100 88 160q82 55 156 55q150 0 221 -109l67 -67q25 -25 53 -90l9 -35v-230l-15 -45q-27 -55 -88 -102q-66 -43 -144 -43t-155 57v-2q-8 4 -14 10.5t-12 12.5l-70 69v-2q-96 74 -96 166zM72 49q0 -92 96 -142q62 -32 120.5 -32t112.5 37q72 56 86 125v223 l-4 16l-8 21q-20 57 -72.5 89t-101.5 32t-86 -11.5t-69 -34.5q-74 -50 -74 -128v-195z" />
<glyph unicode="-" d="M31 716q0 81 65 160q69 87 154 87h813q57 0 107.5 -32t80.5 -83l60 -60q41 -41 58 -88t17 -81q0 -131 -97 -213q-52 -44 -124 -44h-805q-50 0 -94 23q-31 20 -53 43l-53 53q-129 85 -129 235zM72 730.5q0 -55.5 17 -107.5t93 -105q33 -18 76 -18h805q59 0 103 37.5 t63.5 88t19.5 89.5t-14 69q-18 59 -66.5 98.5t-105.5 39.5h-805q-73 4 -131 -68q-55 -68 -55 -123.5zM176 471l90 -86l-86 86h-4z" />
<glyph unicode="." horiz-adv-x="655" d="M31 207.5q0 108.5 66.5 179t176.5 70.5q141 0 215 -111l68 -67q68 -68 68 -173.5t-68 -174t-172 -68.5t-176 65l-70 70q-20 12 -37 29q-71 72 -71 180.5zM72 207q0 -90 59 -150q63 -57 152.5 -57t146.5 58.5t57 150.5t-60 149.5t-153 57.5q-92 0 -147 -59.5t-55 -149.5z " />
<glyph unicode="/" horiz-adv-x="1406" d="M29 223q0 82 59 154l746 995q76 94 202 94q132 0 205 -108l66 -66q72 -72 71 -188l-8 -60q-16 -58 -35 -79l-768 -1024q-67 -78 -176.5 -78t-181.5 71l-64 64q-116 72 -116 225zM70 227.5q0 -61.5 16 -100.5t46 -67q66 -60 149 -60q103 0 157 66l766 1021q20 27 29 58 l8 65q0 94 -56.5 154.5t-148.5 60.5q-108 0 -170 -77l-747 -998q-49 -61 -49 -122.5z" />
<glyph unicode="0" d="M31 588l2 125l-2 125q0 59 20.5 153.5t75.5 186.5t135 156q163 132 400 132q152 0 285.5 -60t221.5 -179l45 -43q96 -96 144 -246q6 -20 16 -51v-2q15 -47 15 -94v-361q0 -45 -17 -100l-29 -88q-49 -144 -159 -234q-85 -69 -139 -89q-150 -57 -284 -57q-272 2 -439 171 l-54 51q-175 135 -225 379h2q-14 55 -14 125zM72 588q0 -68 14 -123q46 -218 198 -340q156 -125 378 -125q128 0 254 48q113 43 204 151q53 63 88 157l29 86q14 54 14 90v361q0 70 -38 167t-94 164.5t-127 111.5q-145 89 -348 89t-355 -123q-179 -146 -213 -402 q-4 -30 -4 -62l2 -125zM502 555v315q0 60 53 98q42 30 90 33t70 -6q97 -22 108 -112v-340q0 -53 -55 -90l-51 -23l-51 -8h-33q-18 6 -33.5 10t-44.5 23l-39 43q-10 25 -14 57zM639 463h20l41 6l52 23q31 25 30 51v323h-16q-65 -8 -85 -24q-42 -35 -42 -74v-305z" />
<glyph unicode="1" horiz-adv-x="659" d="M33 168v1085q0 88 83 153q75 58 167 58h2q63 -4 99 -22.5t56 -30.5h-4l6 -2q46 -37 66 -72l59 -59q60 -60 60 -127v-1092q0 -78 -82 -141q-71 -55 -156 -55h-4q-41 0 -82 14l-82 39q-18 14 -28 25l-68 65q-92 61 -92 162zM74 168q0 -74 69 -123l68 -33q37 -12 71 -12 t70.5 12.5t68.5 35.5q74 51 68 120v1085q0 69 -69 123q-150 94 -276 0q-70 -51 -70 -123v-1085z" />
<glyph unicode="2" d="M33 170v350q6 40 12 62l21 61q27 66 81 127q68 68 144 113q-52 25 -82 59l-59 57q-117 76 -117 215q0 83 61 165q66 87 156 87h481l29 -2l31 -4q310 -67 426 -235l47 -47q125 -125 125 -318q0 -276 -263 -411q80 -31 127 -109l56 -53h-2q0 2 -2 2l10 -8h-2q0 2 -2 2l4 -2 q74 -74 74 -175q0 -58 -35 -126q-8 -15 -23 -31l2 -2q-62 -84 -153 -84h-832q-82 12 -143 69l-68 68q-20 12 -39 31q-65 81 -65 139zM74 180q-2 -23 6 -48.5t49 -74.5q51 -49 121 -57h827q111 0 162 145q12 33 12 79t-32.5 98.5t-94.5 83.5l-22 8l-15 6h-581v31q6 22 18 22 l33 10l29 6l24 7l29 2q31 0 49 2t31.5 3t23.5 3l31 2l17 2q12 0 60 12t128 46t141 88q131 119 131 307q0 194 -135 313q-118 104 -330 143l-28 4l-27 2h-481q-72 0 -126 -73q-50 -66 -50 -138q0 -137 139 -200l12 -6l13 -2h434l12 -2l29 -7l61 -12l21 -10l22 -8l-6 -6 q-29 -16 -61 -25l-70 -10q-44 0 -67 -2t-37.5 -3t-37.5 -4q-58 -7 -125 -27q-126 -36 -235 -147q-47 -53 -74 -114l-20 -60q-5 -19 -10 -61v-328z" />
<glyph unicode="3" d="M33 218.5q0 68.5 37 129.5q47 67 114 96l45 17h334l-39 39q-53 35 -82.5 81t-29.5 134.5t51 152.5h-123l-33 9l-20 10l2 -2q-43 18 -76 51l-68 68q-112 74 -112 213q0 39 20 98q69 151 197 151h481q37 0 92 -12l82 -20q179 -57 273 -168q14 -14 26 -33l47 -45 q13 -13 25 -29q45 -45 80 -131h2q31 -68 31 -164l-7 -90q-6 -45 -28 -96l-13 -25h-2l-10 -22l-10 -17h2l-2 -4l24 -57l-2 2q20 -31 25.5 -51t8.5 -36.5t7 -35.5l7 -78q-11 -295 -277 -420q-82 -38 -178 -59q-4 -2 -10 -2t-13 -2l-53 -8h-506q-72 0 -131 57l-67 68 q-57 35 -89 98.5t-32 132zM74 224q0 -48 12 -85t36 -67q55 -72 128 -72h500l53 8q12 0 20 4q414 92 428 445l-6 75q-4 31 -11 50q-15 41 -26 59l-28 66l-2 6l2 6l18 31l10 22l13 25q18 39 24 84l6 88q0 80 -28 147q-25 72 -76 123q-84 102 -252 156l-80 20q-51 10 -84 10 h-481q-101 0 -164 -139q-12 -37 -12 -84.5t33.5 -101t93.5 -80.5l20 -10l17 -4h434q33 0 73 -13q39 -8 72 -26q-10 -20 -31 -23l-69 -12l-72 -10q-31 0 -39 -4q-72 -16 -112.5 -77t-40.5 -129.5t25 -107.5q45 -73 157 -100l88 -17l68 -8q25 -2 26 -16l-22 -14l-21 -9l-29 -6 l-32 -8q-5 0 -41 -6h-434l-17 -6l-20 -8q-57 -25 -95 -80q-32 -54 -32 -102z" />
<glyph unicode="4" horiz-adv-x="1411" d="M29 670v585q0 47 25.5 88t60.5 68q71 55 151 55q156 0 228 -118l63 -62h-2l4 -2q33 -33 51 -76l6 -20h2l9 -19v-198h153v295l4 20l13 29q33 76 96 113.5t134 37.5q149 0 220 -116l66 -64q31 -31 57 -92l8 -35v-1102l-12 -34l-23 -48q-66 -112 -208 -112q-105 0 -179 74 l-63 63q-63 39 -94 109h-2l-13 30l-4 21v200h-426q-37 4 -98 35h-6q-2 2 -6 5q-24 18 -33 28l-61 61q-2 0 -3 3q-6 0 -16 10q-12 6 -27 24q-31 29 -53 70t-22 74zM70 670q0 -25 19.5 -58.5t35.5 -49t23.5 -20.5t12.5 -8q42 -30 95 -36h565v-328l4 -18l11 -25q25 -59 80 -93 t114 -34q127 0 187 102l14 31l10 31v1098l-4 16l-8 20q-25 61 -79 94t-118 33q-63 0 -116.5 -31.5t-79.5 -95.5l-11 -24l-4 -19v-325h-332v332l-6 14l-8 22q-27 59 -80 93t-99 34q-95 0 -157 -49q-29 -20 -49 -53t-20 -68v-585z" />
<glyph unicode="5" d="M33 211q0 86 44 146.5t116 91.5l-54 55l-28 22q-74 79 -77 120q-1 13 -1 30v571q5 42 22 88q14 27 45 58q74 74 150 73h827q103 0 168 -104l62 -62q39 -37 60.5 -88t21.5 -110.5t-39 -124t-111 -92.5h-2l-25 -11l-20 -6h-152q29 -18 52 -34v4q76 -54 114 -115l45 -43 q-2 0 -6 4q66 -53 105 -141t39 -191t-40 -186.5t-109 -143.5q-129 -113 -345 -153q-16 -4 -35 -4l-26 -2h-482q-70 0 -129 57l-65 66q-89 55 -117 164q-8 32 -8 61zM74 230.5q0 -52.5 12 -89.5t36 -69q54 -72 128 -72h481l27 2q16 0 28 4q321 56 428 276q37 78 37 182.5 t-48 189.5t-124 142.5t-155 83.5q-139 44 -215 44h-41l-125 4l-41 2v76h585l15 4l22 10q59 25 93 79t34 102.5t-13 85t-36 67.5q-52 71 -125 71h-827q-59 0 -121 -61q-18 -18 -41 -57q-11 -39 -14 -64v-561q0 -48 18.5 -73t42.5 -50l62 -45q31 -14 63 -16h449l59 -15l27 -10 q14 -2 22 -14l-43 -19l-29 -6l-32 -8q-5 0 -41 -6h-434l-25 -8q-61 -27 -100 -78t-39 -103.5z" />
<glyph unicode="6" horiz-adv-x="1417" d="M31 453v520q0 98 47 189t127 158q174 146 381 146h362q104 0 170 -102l64 -64q78 -78 78 -186q0 -88 -65 -174q-19 -25 -44 -39q-43 -31 -86 -31h-2l-10 -2q99 -57 151 -133l49 -49q51 -51 79 -106q54 -108 54 -215t-31.5 -185t-86.5 -136q-110 -114 -285 -155 q-217 -54 -436 2q-187 56 -287 156l-51 49q-178 131 -178 357zM72 453q0 -246 236 -368q69 -36 130 -52q124 -33 225 -33t193 22.5t160.5 58.5t121.5 90q111 115 111 288q0 111 -45 197q-84 162 -297 233q-100 35 -200 35h-41l-125 4l-41 2v12q0 34 61 49l49 8l35 5h62l94 2 h96l64 2q56 0 105 56q56 67 56 158q0 30 -12 66.5t-34 67.5q-52 69 -128 69h-362q-194 0 -348 -131q-72 -55 -119 -141t-47 -180v-520zM498 496h215l22 -4l31 -9l37 -12l12 -6v-6q-27 -15 -76 -29l-77 -8l-50 2q-67 0 -96 31q-18 12 -18 41z" />
<glyph unicode="7" horiz-adv-x="1409" d="M29 1210q0 100 59 174q65 82 158 82h821q101 0 168 -100l65 -66q78 -78 78 -182v-45l-6 -37l-383 -1018q-29 -78 -91 -116.5t-152 -38.5t-162 71l-64 64q-53 33 -85 88t-32 123v39l226 620h-299l-17 2l-18 11l-2 2q-66 29 -98 65l-58 58q-108 69 -108 204zM70 1217.5 q0 -77.5 36 -127.5q34 -41 115 -82l12 -2h492l-274 -740l-7 -28v-29q0 -135 130 -193q38 -16 92.5 -16t108.5 34t79 99l381 1014l6 35v39q0 71 -49 135q-53 69 -125 69h-821q-78 0 -128 -67q-48 -63 -48 -140.5z" />
<glyph unicode="8" horiz-adv-x="1417" d="M31 463q0 118 75 250q-75 113 -75 247t58 232t151 158q172 118 422 116q104 0 218.5 -30.5t197.5 -88.5t130 -126l49 -47q129 -129 129 -324q0 -109 -79 -242q40 -78 60 -125t19.5 -134t-33 -163.5t-87.5 -135.5q-104 -108 -285 -159q-103 -28 -212 -28t-224 29 q-177 46 -277 149l-41 41q-196 136 -196 381zM72 465q0 -227 186 -352q86 -55 195.5 -84t210 -29t191.5 23.5t159.5 60.5t121.5 91q113 117 113 288q0 118 -84 250q84 125 84 247q0 216 -190 353q-80 53 -188.5 82.5t-209.5 29.5t-206.5 -24.5t-192.5 -85.5 q-86 -55 -138 -144.5t-52 -213t84 -244.5q-84 -123 -84 -248zM506 459q12 16 33 24l43 11l45 2h96l25 -7l30 -6q29 -10 31 -20q0 -10 -23 -21l-47 -12l-49 -6l-28 -2l-82 6q-37 6 -74 31zM506 967q31 20 72 28l79 9l80 -9l49 -12q20 -6 23 -20q-4 -4 -7 -9q-4 -5 -24 -12 l-33 -10l-24 -2h-96l-45 2q-56 8 -74 35z" />
<glyph unicode="9" horiz-adv-x="1415" d="M27 951.5q0 111.5 34.5 191.5t94.5 141q125 127 307 164h6q6 4 23 4v2q50 10 69 10l23 2h491q37 -4 74 -22q70 -34 106 -98l66 -64q29 -29 43 -59l-2 2q20 -37 20 -78v-1073q0 -87 -88 -152q-79 -59 -157 -59q-58 0 -95 15t-77 50l-72 72q-10 4 -17.5 11t-31 30t-45 68 t-21.5 96v155l-65 5q-84 0 -215 38q-114 43 -179 93l-27 23q-11 9 -22 20l-49 49q-4 2 -8 6q-86 70 -136 158t-50 199.5zM68 967q0 -207 170 -340q60 -46 174 -90q122 -35 198 -35l41 -2l127 -4h41v-291q0 -82 66 -148q69 -57 149 -57q68 0 118 36t71.5 67.5t21.5 72.5v1073 q0 33 -15 63q-27 55 -100 97q-31 14 -59 16h-483l-23 -2l-82 -14q-180 -36 -295 -153q-120 -122 -120 -289zM502 967q33 19 73 26l82 13h160v-76h-207l-24 2l-33 6l-31 12q-8 5 -20 17z" />
<glyph unicode=":" horiz-adv-x="661" d="M31 199q0 92 46 155q76 105 206 105q143 0 213 -113l67 -65q68 -68 68 -175t-73 -174q-74 -69 -174.5 -69t-174.5 67l-68 68q-18 10 -39 31q-71 78 -71 170zM31 1211q0 108 75 183q70 70 177 70q68 0 125 -33.5t92 -89.5l59 -59q72 -72 72 -178.5t-69.5 -171 t-180.5 -64.5q-86 0 -168 68l-76 74l-31 24q-75 75 -75 177zM72 200q0 -77 59 -141q66 -59 153 -59t148.5 58.5t61.5 150.5t-59.5 150.5t-151.5 58.5q-45 0 -82 -17q-53 -18 -91 -71t-38 -130zM72 1215.5q0 -89.5 61 -150.5q68 -59 154 -59t146.5 55t60.5 153q0 90 -63 149 q-64 60 -148 60q-85 0 -149 -60q-62 -58 -62 -147.5z" />
<glyph unicode=";" horiz-adv-x="655" d="M31 37v217q0 86 84 148q76 57 159 57q145 0 218 -111l65 -65q31 -31 53 -80l-2 2l8 -15v-8q4 -6 9 -30v-211q0 -81 -83 -145q-77 -58 -161 -58q-84 6 -154 55v-2q-15 12 -34 31l-62 61v-2q-100 80 -100 156zM31 1223q0 106 72 174.5t180 68.5q135 0 209 -118l65 -64 q68 -72 68 -179.5t-71 -171t-177 -63.5q-100 0 -170 66l-64 63q-25 14 -47 39q-65 79 -65 185zM72 37q0 -83 121 -141q34 -17 77.5 -19t80 11.5t67.5 35.5q69 51 69 119v205l-2 10l-4 14l-2 11l-4 8q-56 127 -201 127q-67 0 -115 -34t-67.5 -63.5t-19.5 -66.5v-217zM72 1221 q0 -90 55 -154q55 -59 147 -59t152.5 55t60.5 148.5t-59 152.5q-55 61 -145 61t-150.5 -57t-60.5 -147z" />
<glyph unicode="&#x3c;" horiz-adv-x="1409" d="M27 730.5q0 43.5 24.5 98t69.5 86.5l794 527q29 24 105 24q150 0 221 -114l66 -64q69 -69 69 -170q0 -48 -18 -106.5t-70 -91.5l-434 -291l336 -221q33 -25 55 -60l78 -76q27 -29 37 -61l-2 2q18 -69 18 -81v-30q0 -103 -72 -172q-68 -67 -174 -67l-55 2q-4 2 -15 5 q-21 6 -32 13l-801 529q-10 6 -30 26l-58 58l-18 12q-53 35 -76 96q-6 18 -10 29.5t-5 22.5q-3 31 -3 74.5zM68 721q0 -53 17 -100.5t60 -77.5l793 -525q17 -9 43 -16l49 -2q88 0 148.5 56.5t60.5 148.5q0 48 -16 100q-8 39 -56 70l-505 338l505 338q43 27 53 63 q19 65 19 107.5t-16.5 80t-45 65.5t-66.5 43t-74 15t-56 -4q-29 0 -43 -14l-793 -524q-37 -27 -57 -73t-20 -89z" />
<glyph unicode="=" horiz-adv-x="1421" d="M33 450.5q0 53.5 14 94.5q29 59 46 82q37 50 102 71l-41 41q-57 35 -89 99.5t-32 124.5v2q6 89 45 141.5t75.5 78t84.5 25.5h849q49 0 87 -28q39 -22 67 -66q2 -4 3 -5t3 -5l60 -59q0 2 -2 2v2q23 -27 28 -37h2q23 -29 38.5 -76t15.5 -84q-12 -133 -101 -200 q-26 -19 -55 -29q6 -8 14 -25l62 -57q80 -80 80 -187q-6 -92 -54 -151q-25 -39 -64.5 -64.5t-80.5 -25.5h-850q-41 0 -92 30q-4 4 -8 8.5t-9 8.5l-67 67q-10 2 -14 9q-49 41 -83 100t-34 112.5zM74 470q0 -114 98 -198q33 -20 66 -20h849q33 0 65 21.5t47 44.5q46 69 52 143 q0 73 -49 138q-51 69 -125 69h-827q-73 0 -124.5 -68t-51.5 -130zM121 1096q-93 -149 1 -270q55 -72 128 -72h827q78 0 125 69q10 16 26.5 47t22.5 91q0 75 -47 135q-18 31 -51 51q-29 23 -66 22h-849q-62 0 -117 -73z" />
<glyph unicode="&#x3e;" horiz-adv-x="1409" d="M33 208q0 143 96 206l424 284l-320 215q-8 4 -14 10.5t-12 12.5l-68 68q-106 71 -106 193t68.5 196t181.5 73l71 -8q38 -18 45 -20t29 -17l743 -495q49 -35 80 -80l64 -64q68 -68 67 -172q0 -135 -112 -211l-740 -491q-51 -45 -151 -45t-166 65l-66 66q-53 31 -83.5 89 t-30.5 125zM74 215q0 -92 55 -153.5t150 -61.5q84 0 127 37l743 493q96 66 96 182t-96 181l-743 496q-14 10 -62 28l-65 8q-92 0 -148.5 -61t-56.5 -154q0 -111 78 -166l495 -331l-495 -332q-37 -25 -57.5 -71t-20.5 -95z" />
<glyph unicode="?" horiz-adv-x="1409" d="M29 1217q6 97 45 150q74 99 172 99h481q56 0 119 -18l106 -33q162 -59 248 -182l49 -47q131 -131 131 -326q0 -124 -54 -220q-100 -177 -337 -247q-54 -18 -133 -28q4 -4 7 -10.5t7 -10.5l66 -63q68 -68 68 -175t-73 -174q-74 -69 -174.5 -69t-172.5 71l-60 60 q-121 73 -121 221q0 76 46.5 139.5t111.5 85.5q4 2 6 2t6 2l-51 54q-119 74 -119 219l9 74q8 18 15 35q9 21 30 42h-127l-17 2l-18 11h-2q-57 27 -88 63l-58 57q-118 75 -118 216zM70 1217q0 -142 139 -203l12 -6l12 -2h429q29 0 69 -13l70 -20l12 -6q-8 -14 -39 -25 l-59 -10l-66 -8q-99 0 -168 -90q-8 -10 -14 -24.5t-14 -33.5l-9 -63q0 -68 39 -120t99 -79q43 -14 92 -14q226 0 387 114q182 128 182 349q0 147 -81 255.5t-222 157.5l-104 33q-62 16 -109 16h-481q-74 0 -129 -69q-10 -16 -26.5 -48t-20.5 -91zM444 199q0 -80 61.5 -139.5 t149.5 -59.5t149.5 58.5t61.5 150.5t-59 150.5t-152 58.5q-45 0 -82 -17q-53 -18 -91 -70t-38 -132zM1233 1200l8 -8z" />
<glyph unicode="@" horiz-adv-x="1665" d="M31 537v346q0 109 48 216t124 187q171 180 389 180h383l29 -2q148 -33 247 -89t170 -150l41 -41q-2 0 -6 4q84 -72 139 -205l25 -76q14 -49 14 -86v-264q-8 -70 -84 -133q-71 -59 -137 -59h-49l12 -19l66 -63q65 -65 65 -125v-103q0 -37 -30 -80l-39 -47q-29 -29 -67 -47 t-66 -18h-598q-57 0 -103 14l-86 31q-117 43 -209 135l-39 37q-106 80 -172.5 200.5t-66.5 256.5zM72 537q0 -164 103 -303q103 -138 253 -191l86 -31q43 -12 90 -12h598q52 0 107 53l43 51q18 27 18 54v102q0 35 -32.5 75t-77.5 66q-25 18 -48 19h-555q-29 0 -53 8l-51 25 q-20 14 -39 39q-11 28 -14 51v334q0 102 151 127h260q25 0 56 -11q45 -10 73.5 -42.5t34.5 -80.5v-190h-47l-20 6l-9 23l-4 47q-8 74 -69.5 121t-137.5 47q-67 0 -135 -43q-25 -12 -49 -45.5t-24 -67.5v-111q0 -68 73 -112l68 -33l67 -10q37 0 64.5 13t56.5 15t52 -14 q28 -11 53 -14h297q58 0 115 50q63 53 71 112v260q0 31 -12 77l-25 74q-57 143 -175 228.5t-271 115.5l-23 4l-20 2h-379q-104 0 -197.5 -47t-163 -120.5t-114.5 -174t-45 -200.5v-346zM557 494l6 -7zM637 461h39l-39 39v-39zM748 713q0 37 36 37q37 0 37 -37 q0 -16 -6 -24.5t-27 -12.5q-40 0 -40 37zM991 866q4 -4 6 -8t7 -8l30 -31v43q-16 4 -20 4h-23z" />
<glyph unicode="A" d="M33 186v691q0 107 53 221q92 190 233.5 279t346.5 89q311 0 487 -227l45 -45q78 -78 135 -199q22 -36 37 -92q19 -74 19 -123v-696q0 -93 -81 -160q-74 -61 -165 -61q-109 0 -180 71l-66 66q-66 39 -90 106l-23 74v178h-147v-274q0 -90 -83 -158q-76 -63 -167 -63 q-108 0 -184 78l-58 57q-112 68 -112 188zM74 186q0 -59 38 -104t97 -70q37 -12 75 -12t75.5 14.5t68.5 39.5q72 56 72 132v310h325v-310l21 -65q20 -57 76.5 -89t105.5 -32t87 13.5t67 38.5q69 56 69 134v697q0 63 -18.5 120.5t-30.5 77.5q-159 344 -536 344 q-193 0 -325 -82.5t-218 -261.5q-49 -104 -49 -204v-691zM526 930q0 16 17 33l37 22l45 14l39 5q97 0 141 -74h-279z" />
<glyph unicode="B" horiz-adv-x="1413" d="M33 164v1102q6 51 45 104q51 69 132 91q19 5 40 5h588q32 -3 69 -12l62 -20q145 -57 225 -172l49 -48q139 -139 139 -358q0 -63 -14 -135q-16 -57 -41 -111q55 -120 55 -224t-20.5 -176.5t-59.5 -133.5q-79 -127 -233 -180l-61 -21q-37 -12 -70 -12h-596q-57 8 -84 26.5 t-49 40.5l-55 56q-24 15 -52 46q-69 73 -69 132zM74 164q0 -45 57 -107q20 -20 43 -35.5t70 -21.5h592q25 0 59 10l61 21q141 49 215 166.5t74 257t-59 258.5q59 122 59 257t-70.5 252t-218.5 173l-61 20q-20 6 -59 10h-586q-27 0 -68 -18t-72.5 -61t-35.5 -84v-1098z M496 422v74h303q16 -12 16 -13l8 -20q0 -41 -43 -41h-284zM496 930v71h284q43 0 43 -38l-8 -23q-2 -6 -16 -10h-303z" />
<glyph unicode="C" horiz-adv-x="1392" d="M31 524v375q0 51 20 121l37 94q80 176 232.5 264t317.5 88q345 0 519 -231l49 -49q52 -52 99 -137q21 -26 38 -91h3q16 -41 16 -112.5t-45 -132t-117 -84.5q8 -10 16.5 -20.5t14.5 -20.5l59 -58q72 -72 72 -170q0 -49 -23 -114l-30 -70q-76 -152 -231 -235 q-145 -78 -296 -78q-293 0 -469 176l-43 41q-120 88 -182 229l-39 99q-14 39 -16 57t-2 59zM72 524q0 -55 16 -102l39 -96q68 -155 214 -242q141 -84 316 -84q255 0 425 166q57 55 94 129l34 82q14 43 15 86q0 88 -63 147t-134 59h-2q-72 -1 -107.5 -19.5t-57 -45t-36 -58.5 t-33.5 -58q-49 -66 -127 -66t-124.5 44t-46.5 120v254q0 72 47 116.5t107 44.5q101 0 140 -65l35 -59q8 -25 33 -55q55 -68 150.5 -68t157 58t61.5 151q0 49 -15 86q-10 39 -34 79q-111 221 -361 279q-78 18 -158 18q-172 0 -314 -80.5t-216 -244.5l-39 -99 q-16 -59 -16 -102v-375zM631 465q5 -1 24 -1h23q59 2 106 93q23 43 51.5 83t92.5 58l-41 43q-36 20 -58 50q-29 33 -41 61h-2l-8 12h-18q-53 0 -91 -34.5t-38 -92.5v-272zM846 782q4 -6 10 -10z" />
<glyph unicode="D" d="M33 186v1057q4 36 18 78q19 38 48.5 71.5t71.5 53.5t79 20h475l18 -2l25 -4q128 -29 199 -69q102 -51 166 -121q14 -16 27.5 -30.5t25.5 -31.5l45 -45q73 -77 112 -168h3q43 -92 43 -209v-352q0 -195 -137 -352q-130 -150 -318 -201l-62 -12h-2q-16 -4 -26 -4h-4l-13 -2 h-481l-29 8q-63 18 -110 66l-62 61q-49 31 -80.5 80t-31.5 108zM74 186q0 -61 45 -111q56 -63 131 -75h471l16 2q16 0 25 4l33 6l28 6q183 53 301 188q127 148 127 331v352q0 102 -39 192t-108 160q-122 132 -342 178l-23 4l-18 2h-471q-29 0 -63.5 -17t-57.5 -46 q-23 -23 -41 -59q-11 -37 -14 -64v-1053zM502 420v584h82l69 -3q35 0 66 -8q75 -19 102 -100l2 -10v-340q0 -53 -55 -90l-51 -23l-51 -8h-33l-49 -2h-82zM639 463h20l41 6l52 23q31 25 30 51v319q-10 2 -26 2l-70 2h-47v-403z" />
<glyph unicode="E" horiz-adv-x="1415" d="M33 164v1102q6 51 45 104q51 69 132 91q19 5 40 5h821q101 0 170 -102l64 -64q77 -77 77 -174q0 -182 -176 -254l-16 -4h-334q2 -4 4 -7t4 -7l62 -59q4 -4 5 -7q1 -6 11 -12q41 -45 60 -124q7 -28 7 -53q1 -29 -9 -51q-18 -42 -48 -87h138l18 -6v-2l10 -2 q87 -43 129 -109l66 -63q69 -69 69 -175q-6 -94 -44 -145q-72 -96 -164 -96h-832q-57 8 -84 26.5t-49 40.5l-55 56q-24 15 -52 46q-69 73 -69 132zM74 164q0 -45 57 -107q20 -20 43 -35.5t70 -21.5h827q80 0 127 70q10 16 26.5 48t20.5 91q0 139 -139 203l-14 4l-11 4h-585 v78h188q70 0 129 71q14 23 25.5 40.5t17.5 32.5q14 35 14 71.5t-16 72.5q-25 77 -100 122q-35 20 -70 20h-188v78h585l11 2q72 31 112.5 83t40.5 106.5t-12 91t-35 67.5q-51 69 -127 69h-821q-27 0 -68 -18t-72.5 -61t-35.5 -84v-1098z" />
<glyph unicode="F" horiz-adv-x="1409" d="M33 176v1075q4 76 67 145q23 25 64 46v2q29 16 42 19t44 3h825q102 -8 164 -106l64 -62q79 -79 79 -186v-4q0 -72 -37.5 -131t-103.5 -90l-29 -13l-20 -6h-330q4 -4 5 -9t5 -9l64 -62q72 -72 72 -178q0 -70 -38 -135t-106 -90l-73 -25h-160v-303l-6 -18 q-32 -81 -97 -128.5t-143 -47.5q-92 5 -160 53q-11 6 -26 23l-66 63q-6 4 -14 12q-86 64 -86 162zM74 176q0 -79 69 -129q16 -10 48 -26.5t94 -20.5q68 0 120 38q63 46 84 114l5 12v334h190l27 8l39 14q57 20 88.5 76.5t31.5 114t-30 116.5q-31 53 -90 78l-39 13l-27 10 h-188v78h591l15 4l22 10q57 27 89 77t32 97t-11 84t-32 68q-52 75 -127 79h-825q-36 0 -68 -16q-51 -26 -92 -98q-14 -27 -16 -62v-1073z" />
<glyph unicode="G" d="M31 549v328q4 224 171 404q172 185 392 185h354q101 0 168 -104l62 -62q39 -37 60.5 -88t21.5 -98q0 -111 -84 -188q43 -31 75 -80l62 -60q68 -68 73 -151v-47l3 -31v-18q-4 -305 -159 -486q-163 -190 -458 -190h-12q-266 0 -438 172l-46 43q-123 92 -194 252 q-51 109 -51 219zM72 549q0 -109 49 -205q74 -166 213 -255t323 -89h12q276 0 429 178q149 175 153 463v18l-2 29v49q-4 70 -61 127q-60 60 -125 60h-297q-79 0 -134 -65q-54 -63 -54 -146q0 -190 225 -217q-40 -74 -141 -74q-94 0 -148 72q-11 27 -14 55v328q0 74 98 118 q16 6 53 11h310l8 2q153 66 153 209q0 71 -48 137q-53 71 -126 71h-350q-210 0 -366 -169t-160 -379v-328zM637 463h45l-37 39l-8 4v-43zM655 397q4 -4 7 -4z" />
<glyph unicode="H" horiz-adv-x="1415" d="M33 162v1104l6 22l10 31l14 29q49 69 105 94q53 24 115.5 24t123 -31.5t95.5 -88.5l61 -62q31 -31 45 -63l13 -33l10 -29v-188h153v295l7 20l12 29q72 151 231 151h2q96 -6 151.5 -47t76.5 -78l65 -63q53 -53 53 -125v-1085q0 -82 -84 -152q-76 -53 -170.5 -53t-160.5 65 l-66 66q-67 40 -98 117l-10 18l-9 33v196h-153v-297l-23 -63q-29 -68 -91 -101.5t-136 -33.5q-107 0 -170 63l-66 66q-2 0 -2 2h-2q-63 41 -94 119l-6 14zM74 164l4 -17l8 -20q25 -61 77 -94t115.5 -33t117 28.5t77.5 86.5l21 55v326h331v-332l4 -17l11 -20 q59 -127 196 -127q29 0 70 13.5t70 34.5q69 52 69 122v1085q0 74 -71 123q-67 42 -138 47q-135 0 -196 -127l-11 -22l-4 -14v-332h-331v325l-21 56q-25 55 -79 84.5t-112 29.5t-100 -22q-51 -21 -86 -82l-10 -21l-8 -24l-4 -14v-1098z" />
<glyph unicode="I" horiz-adv-x="1415" d="M33 211q0 158 157 235q10 8 23 9l18 6h170v407h-67l-17 2l-18 11h-2q-55 27 -88 61l-64 64q-112 75 -112 206q0 85 61 167q66 87 156 87h825q102 -8 164 -106l64 -62q79 -79 79 -186v-4q0 -72 -37.5 -131t-103.5 -90l-29 -13l-20 -6h-178v-407h86l20 -8v-2 q77 -28 127 -101l4 -8l62 -61q0 2 -2 2v2q71 -71 71 -169q0 -69 -32.5 -128.5t-87.5 -100.5q-39 -24 -81 -24h-3h-826q-38 0 -74 21q-43 24 -69 50l-59 60q-117 78 -117 217zM74 211q0 -109 84 -174q10 -10 40.5 -23.5t51.5 -13.5h825q37 0 70 20q100 74 100 195 q0 59 -31 113q-31 47 -90 78l-22 8l-15 6h-210v586h210l15 4l22 10q57 27 89 77t32 97t-11 84t-32 68q-52 75 -127 79h-825q-72 0 -126 -73q-50 -66 -50 -138q0 -137 139 -200l12 -6l13 -2h204v-586h-204l-25 -8q-139 -66 -139 -201z" />
<glyph unicode="J" horiz-adv-x="1415" d="M27 584q0 105 75 181q71 73 177 73q66 0 124 -33t93 -86l65 -64h-2l4 -2q45 -45 55 -86q17 -76 17 -104h16l51 6q29 10 52.5 30.5t23.5 49.5v696l27 86q29 63 90 101q65 34 131 34l131 -34q65 -35 100 -91l64 -63q61 -61 61 -137v-701q0 -39 -17 -110.5t-36 -104.5h-2 q-92 -188 -228 -275t-343 -87q-269 0 -445 176l-41 39q-115 86 -179 216t-64 290zM68 584q0 -248 166 -417q163 -167 419 -167q197 0 327 82t216 262q49 100 49 199v700q0 74 -71 131q-63 51 -131 51q-152 0 -203 -120l-21 -66v-690q0 -47 -33.5 -77t-74.5 -42l-54 -8 q-61 0 -94 18q-31 20 -45 49l-20 74q0 19 -14.5 84.5t-75 107.5t-116.5 42t-94 -16.5t-68 -44.5q-62 -56 -62 -152z" />
<glyph unicode="K" horiz-adv-x="1415" d="M33 162v1104l6 22l10 31l14 29q49 69 105 94q53 24 115.5 24t123 -31.5t95.5 -88.5l59 -60h-2l4 -2q31 -31 45 -63l13 -33l6 -21l258 250q36 36 88 45v-2q8 0 20 6h43q139 0 213 -118l66 -64q68 -72 67 -170v-31l-8 -36q0 -48 -51 -99l-309 -315l311 -363 q35 -39 46 -75.5t11 -88.5q0 -106 -67.5 -174.5t-175.5 -68.5q-101 0 -183 78l-55 55q-37 23 -86 80l-184 215v-223q0 -81 -88 -146q-79 -59 -157 -59q-112 0 -175 63l-66 66q-2 0 -2 2h-2q-63 41 -94 119l-6 14zM74 164l4 -17l8 -20q25 -61 77 -94t101.5 -33t85 12.5 t68.5 35.5q76 55 76 122v344l352 -412q43 -49 85 -75.5t119.5 -26.5t136 58.5t58.5 150.5q0 45 -9 76.5t-40 64.5l-319 375l-7 12v6l326 332q34 34 45 95q2 12 4 16v31q0 88 -59 147q-55 61 -150 61h-37q-20 -6 -41.5 -10t-44.5 -26l-419 -404v270l-21 56q-25 55 -79 84.5 t-112 29.5t-100 -22q-51 -21 -86 -82l-10 -21l-8 -24l-4 -14v-1098z" />
<glyph unicode="L" horiz-adv-x="1409" d="M33 176v1073q0 92 84 158q75 59 156 59q143 0 221 -114l63 -64q37 -37 57 -84q10 -10 11 -22l6 -17v-704h469l20 -8v-2q77 -28 127 -101l4 -8l62 -61q0 2 -2 2v2q71 -71 71 -169q0 -69 -32.5 -128.5t-87.5 -100.5q-39 -24 -81 -24h-3h-830q-64 9 -108 39q-12 6 -29 22 l-68 68q-51 25 -88 98q-16 29 -19 42t-3 44zM74 176q0 -36 16 -63q29 -63 102 -99q21 -10 58 -14h825q37 0 70 20q100 74 100 195q0 59 -31 113q-31 47 -90 78l-22 8l-15 6h-593v842l-5 10q-18 63 -75 108t-110.5 45t-91.5 -13t-68 -36q-70 -51 -70 -127v-1073z" />
<glyph unicode="M" horiz-adv-x="1667" d="M31 209v24l127 1016q16 98 87.5 157.5t147.5 59.5q153 0 228 -108l69 -70q29 -34 39 -55l2 -2l78 -156l143 283q35 57 94.5 82.5t102.5 25.5t75.5 -8t63.5 -24q67 -36 101 -88l67 -68q47 -47 51 -109l127 -1001v-51q0 -111 -62.5 -182.5t-172.5 -71.5t-185 74l-63 61 q-89 56 -111 168q-66 -49 -139 -49t-115 16q-37 18 -67 49l-57 58q-8 4 -9 4l-16 -115l-6 -55q-14 -98 -84 -154.5t-167 -56.5t-169 71l-64 64q-53 33 -84.5 88t-31.5 123zM72 209q0 -136 130 -193q38 -16 98.5 -16t120.5 47t73 133l6 56l12 86l10 86l8 57l7 12l6 -8l49 -92 q39 -74 104 -109q37 -14 100.5 -14t117 39t81.5 100l43 90l6 -24l37 -283q18 -121 139 -164q35 -12 72 -12q98 0 151.5 62.5t53.5 156.5v47l-127 1002q0 66 -72 114q-63 43 -123 43q-134 0 -192 -96l-195 -387l-190 375q-27 53 -79 80.5t-118.5 27.5t-128 -49t-73.5 -131 l-127 -1016v-20z" />
<glyph unicode="N" horiz-adv-x="1425" d="M35 186v1053q0 115 113 189q18 12 40 18v2q54 18 72 18h27q125 0 200 -94l19 -26l63 -62q4 -4 8.5 -9t8.5 -9l200 -265v244l11 31l16 55q29 63 90 101q66 35 131.5 35t131.5 -35q63 -35 100 -91l63 -63q62 -62 62 -137v-1063q0 -91 -81 -156q-75 -59 -165 -59 q-107 0 -174 65l-66 66q-35 18 -59 53l-207 275v-244q0 -27 -16 -60l-19 -34q-77 -121 -215 -121q-53 0 -98 18t-86 60l-64 61q-106 74 -106 184zM76 186q0 -59 38 -103t97 -69q41 -14 86 -14t93 23.5t79 72.5l20 41q12 27 13 43v393l377 -501q54 -72 163 -72q76 0 142 50 q69 54 69 130v1063q0 74 -71 131q-63 51 -131 51q-152 0 -203 -120l-12 -41l-9 -25v-381l-370 490q-29 37 -74 57t-83 20t-50 -2t-45 -12t-63 -38q-66 -62 -66 -134v-1053z" />
<glyph unicode="O" horiz-adv-x="1415" d="M33 514v401l4 50l6 24l20 62l15 39q78 186 229 281t352 95q322 0 494 -231l43 -41q82 -86 131 -190q31 -46 39 -93l-2 2q18 -69 18 -86v-409q0 -49 -18 -105q-9 -42 -35 -92q-168 -358 -567 -358q-98 0 -172 18q-170 51 -281 158l-45 43q-138 106 -186 254q-20 40 -27 76 h-2q-16 37 -16 102zM74 514q0 -45 11 -81q16 -52 32 -83q47 -135 143 -213t225 -117q93 -20 174 -20q377 0 537 338q49 98 49 182v385q0 46 -10 85t-19 58l-20 39q-158 338 -537 338q-186 0 -327.5 -88t-214.5 -262l-15 -37l-14 -45l-10 -45l-4 -37v-397zM496 567v291 q0 68 51 107t112 39t112.5 -42t51.5 -110v-279q0 -68 -50 -109.5t-112.5 -41.5t-113.5 39t-51 106zM633 465q8 -2 40.5 -2t70.5 30.5t38 79.5v289q-16 4 -20 4q-49 0 -89 -29.5t-40 -80.5v-291z" />
<glyph unicode="P" horiz-adv-x="1415" d="M35 176v1075q2 45 11 60.5t15.5 27t12.5 21.5t13 17t29 30q58 59 136 59h586q140 0 287 -126q44 -37 79 -83l51 -51q129 -129 129 -264v-168l-14 -61l-10 -35l-8 -21q-39 -104 -127 -176q-84 -73 -193 -98h-2l-33 -10l-24 -4h-2l-29 -7l-16 -2h-293v-303l-6 -18 q-32 -81 -96 -128.5t-122.5 -47.5t-117.5 20q-57 25 -92 62l-60 57q-104 67 -104 174zM76 176q0 -101 139 -164q37 -12 88.5 -12t103.5 38q62 45 89 126v334h323l15 2l28 6l33 6l27 8q101 21 178 90q80 68 117 162l8 21l10 32l8 33l4 25v161q0 134 -138 260 q-134 121 -271 121h-586q-60 0 -119 -59q-18 -18 -26 -33t-15 -22q-14 -27 -16 -62v-1073zM498 930v71h284l23 -4q18 -4 20 -12v-43l-6 -6l-10 -4l-8 -2h-303z" />
<glyph unicode="Q" horiz-adv-x="1421" d="M33 557v317l6 72l20 74q57 208 224 330q71 54 172 86v2q88 30 207 30q315 0 491 -227l47 -47q76 -76 133 -197q28 -44 43 -118l-2 2q15 -53 15 -101v-338q0 -169 -110 -322q-99 -137 -265 -216q-3 -32 -7.5 -60t-5.5 -39q-16 -78 -71.5 -136t-161.5 -58q-107 0 -172 63 l-61 62q-95 57 -119 178q-4 16 -5 27.5t-3 21.5q-47 33 -84 72l-45 45q-157 114 -216 293q-30 78 -30 184zM74 557q0 -89 28 -168q41 -125 132.5 -220t214.5 -136v-45q0 -86 43 -154q60 -86 163 -86t150 50q52 55 65 150q2 15 4.5 25.5t2.5 22.5v31l6 6q160 70 261 203 q107 143 107 309v338q0 49 -9 86q-19 79 -40 114q-160 344 -540 344q-105 0 -192 -26.5t-163 -83.5q-154 -107 -209 -307l-18 -68l-6 -70v-315zM502 557v315q0 59 51 99q31 16 53 24l58 9q55 0 103 -31t56 -96v-326q0 -45 -30.5 -76t-75.5 -43l-53 -8h-33q-18 6 -33.5 10 t-44.5 23q-34 27 -41.5 55.5t-9.5 44.5zM639 465h18l52 6q42 21 57.5 36t15.5 44v315h-12l-57 -8q-16 -6 -37 -18q-37 -31 -37 -70v-305z" />
<glyph unicode="R" d="M35 162v1104q6 51 45 104q51 69 132 91q19 5 40 5h588q32 -3 69 -12l62 -20q141 -55 225 -170l51 -52q137 -137 137 -362q0 -116 -57 -238l35 -77q22 -49 22 -111v-356q0 -82 -84 -152q-76 -53 -170.5 -53t-160.5 65l-68 68q-59 37 -96 115l-10 18l-9 33v196h-153v-295 l-17 -51q-31 -74 -93 -111.5t-138 -37.5q-109 0 -172 63l-66 66q-2 0 -2 2h-2q-63 41 -94 119l-6 14zM76 164l4 -17l8 -20q25 -61 77 -94t117.5 -33t119 31.5t79.5 95.5l8 25l7 18v326h305q12 -2 18 -9l8 -16v-307l4 -17l11 -20q59 -127 196 -127q29 0 70 13.5t70 34.5 q69 52 69 122v356q0 49 -20 97l-39 90q59 124 59 260.5t-73.5 252t-215.5 169.5l-61 20q-20 6 -59 10h-586q-27 0 -67.5 -18t-72.5 -61t-36 -84v-1098zM498 930v71h284q43 0 43 -34l-4 -27q-2 -8 -20 -10h-303z" />
<glyph unicode="S" horiz-adv-x="1417" d="M33 221.5q0 71.5 43 129t114 93.5q10 10 23 11l18 6h109q-40 25 -61 53l-46 43q-200 139 -200 406q0 162 82 289.5t235 181.5l58 20q33 12 77 12h590q102 -8 164 -106l64 -62q79 -79 79 -186v-4q0 -72 -37.5 -131t-103.5 -90l-29 -13l-20 -6h-100q46 -34 90 -92l61 -59 q47 -49 77 -99.5t48 -113.5l12 -47l2 -11v-167q0 -78 -37 -144.5t-82.5 -113t-98.5 -81.5q-116 -77 -226 -77h-586q-70 0 -131 59l-65 64q-57 35 -90 99.5t-33 136zM74 209q0 -75 50 -139q53 -70 126 -70h586q96 0 208 72q102 66 162 170q39 76 39 139v162l-4 24l-8 31 q-14 55 -47 104q-39 68 -109.5 126.5t-156.5 76.5l-89 19l-14 4h-297l-12 8q-12 6 -12 27q0 43 43 43h548l15 4l22 10q57 27 89 77t32 97t-11 84t-32 68q-52 75 -127 79h-590q-33 0 -63 -10l-57 -20q-141 -49 -216 -167t-75 -271.5t88 -270.5t244 -166l18 -6l29 -6l30 -8 l19 -2h297l18 -9l6 -6v-43l-10 -8l-8 -4l-25 -8h-542l-25 -8q-139 -68 -139 -203z" />
<glyph unicode="T" horiz-adv-x="1417" d="M45 1290q14 37 33.5 68t43.5 56q53 52 126 52h827q101 0 168 -104l62 -62q39 -37 60 -88t21 -117.5t-44 -126.5q-43 -59 -132 -96l-16 -4h-184v-813l-9 -22l-12 -23h2q-66 -147 -227 -147q-106 0 -178 71l-62 62q-70 39 -96 113h-2l-10 28l-8 27v704h-70l-33 9l-20 10 q-45 23 -76 53l-66 66q-112 77 -112 206q0 41 14 78zM72 1214q0 -127 127 -194l20 -10l17 -4h213v-836l6 -18l10 -25q25 -61 79 -94t116 -33q140 0 196 127l10 20l6 17v842h213l11 2q153 66 153 209q0 71 -49 137q-52 71 -125 71h-827q-97 0 -164 -141q-12 -37 -12 -70z" />
<glyph unicode="U" horiz-adv-x="1417" d="M33 514v750l12 47l16 30q35 66 95.5 95.5t126.5 29.5h4q57 -8 124.5 -41.5t100.5 -93.5l66 -63q53 -53 53 -115v-690h28q47 0 86 30.5t39 79.5v693l7 20l12 29q72 151 231 151h2q96 -6 151.5 -47t76.5 -78l65 -63q53 -53 53 -125v-735q0 -49 -18 -105q-9 -42 -35 -92 q-168 -358 -567 -358q-271 0 -445 174l-43 43q-133 99 -196 256q-45 102 -45 178zM74 514q0 -80 43 -164q70 -172 214 -261t328 -89q377 0 537 338q49 98 49 182v735q0 74 -71 123q-67 42 -138 47q-135 0 -196 -127l-11 -22l-4 -14v-689q0 -68 -51 -109.5t-97.5 -41.5 t-60.5 2t-49 17t-53 61l-20 65v688q0 69 -73 119q-63 42 -138 51q-129 0 -185 -102l-16 -31l-8 -30v-748z" />
<glyph unicode="V" horiz-adv-x="1415" d="M31 1176v41q0 107 73 179q72 70 161 70q156 0 235 -120l59 -60q37 -39 59 -90l68 -184l113 295q31 78 96.5 118.5t140.5 40.5q142 0 209 -110l66 -64q72 -72 71 -190l-2 -25v-20l-383 -1026q-29 -80 -90 -124t-157 -44t-162 69l-64 64q-74 45 -104 129l-383 1018z M72 1184l6 -31l381 -1014q25 -63 77 -101t122.5 -38t125 38t78.5 107l381 1020v15l2 26q0 92 -54 155.5t-137 63.5q-168 0 -216 -133l-174 -458l-7 -9l-174 461q-23 61 -76 100t-132.5 39t-141 -58t-61.5 -150v-33z" />
<glyph unicode="W" horiz-adv-x="1671" d="M33 1192v20q0 107 75 182q72 72 177 72q94 0 164 -59q33 -25 55 -61l71 -70q48 -53 56 -115q58 52 139 52h3q83 -1 128 -21q44 -21 97 -82q8 -10 16 -23l6 -6l22 174q11 89 90 155q66 56 150 56q151 0 225 -120l60 -58q41 -41 61 -92l2 -4l6 -27v-118l-120 -967 q-14 -98 -82 -157.5t-164 -59.5q-111 0 -178 67l-66 66q-52 27 -76 80l-88 170l-129 -256q-35 -63 -94 -95t-125 -32q-106 0 -178 71l-68 66q-96 65 -108 176zM74 1196l127 -1016q10 -80 71.5 -130t129.5 -50q135 0 198 109l191 374l194 -387q25 -51 77 -73.5t119.5 -22.5 t126 50t70.5 136l121 967v115l-2 8q-60 149 -203 149q-75 0 -135 -47q-62 -47 -76 -127l-36 -284l-7 -25l-43 88q-18 43 -49 74q-55 67 -160 67q-53 0 -92 -18q-69 -32 -112 -123l-45 -88l-7 19l-8 55l-10 86l-12 86l-6 57q-8 82 -72 129q-59 51 -139 51q-85 0 -149 -60 q-62 -58 -62 -153v-16z" />
<glyph unicode="X" horiz-adv-x="1425" d="M35 198q0 91 45 154h-2l246 330l20 31l-258 350q-51 70 -51 138t20.5 114.5t54.5 80.5q68 70 177 70q125 0 200 -94l19 -26l61 -60h-2l4 -2q4 -4 5 -7q0 -1 8 -9q2 0 4 -2l88 -117l172 229q69 88 196 88q68 0 125.5 -33.5t89.5 -89.5l60 -57q74 -74 74 -176l-9 -74 q-21 -48 -34 -65l-269 -361l269 -360q27 -34 38 -80l-2 2l7 -25v-41q0 -107 -73 -174q-74 -69 -173 -69q-107 0 -174 65l-66 66q-35 18 -59 53l-94 125l-166 -217q-73 -92 -186 -92t-187 67l-68 68q-18 10 -39 31q-71 78 -71 169zM76 203q0 -80 59 -144q66 -59 152 -59 q107 0 170 78l205 272h6l211 -278q54 -72 152.5 -72t160 58.5t61.5 150.5v37q-6 18 -10 37.5t-26 48.5l-283 381l283 381q8 10 14 24.5t14 32.5l8 66q0 90 -62 148q-64 60 -149 60q-112 0 -163 -71l-205 -273l-6 -6h-6l-205 273q-60 77 -170 77q-85 0 -149 -60 q-62 -59 -62 -140t43 -138l264 -356l12 -18l-276 -375q-43 -55 -43 -135z" />
<glyph unicode="Y" horiz-adv-x="1413" d="M31 1014v250l12 47l16 30q35 66 95.5 95.5t125 29.5t124 -31.5t94.5 -91.5l59 -57h-2l4 -2q37 -37 53 -78l17 -49v-186h28q129 0 129 178v115q25 92 93.5 147t154.5 55q96 -6 151.5 -47t76.5 -78l65 -63q53 -53 53 -125v-242l-10 -63l-22 -76q-55 -135 -138.5 -222 t-199.5 -144v-328l-13 -33h-2l-16 -53q-25 -57 -88 -94q-66 -35 -123 -35q-114 0 -186 74l-66 63q-68 50 -96 119l-10 26l-9 29v295q-58 37 -84 66l-59 59q-25 16 -47 39q-96 86 -141 221l-25 72q-14 45 -14 88zM72 1014q0 -35 12 -74l25 -70q43 -125 128 -202.5t205 -137.5 v-350l17 -47q25 -63 80 -98t114 -35t119 31q53 31 78 90l12 39l10 26v344q119 53 203 137.5t137 219.5l21 65l10 68v235q0 74 -72 123q-16 10 -47.5 26.5t-89.5 20.5q-74 0 -130 -44t-77 -119v-113q0 -98 -23 -139q-46 -80 -147 -80h-22q-27 6 -45.5 10t-43.5 22 q-54 39 -54 107v186l-15 43q-25 59 -80 93t-113 34q-132 0 -188 -102l-16 -31l-8 -30v-248z" />
<glyph unicode="Z" d="M35 227.5q0 77.5 59 149.5l365 491h-123l-17 2l-18 11h-2q-57 27 -88 63l-57 57q-119 76 -119 216q0 43 14 83l21 41q31 63 83 94t99 31h829q47 -8 101.5 -44t83.5 -83l59 -59q59 -59 59 -115v-106q-2 -31 -18 -55l-20 -33l-381 -510h125q37 0 71 -27q57 -34 92 -88 l66 -63q65 -65 65 -125v-103q0 -37 -30 -80l-39 -47q-69 -65 -135 -65h-826q-70 0 -131 59l-65 64q-57 35 -90 99.5t-33 142zM76 211q0 -78 52.5 -144.5t123.5 -66.5h825q49 0 109 53l43 51q18 27 18 54v102q0 35 -32.5 75t-77.5 66q-25 18 -47 19h-377l497 667l23 37 q12 20 14 41v103q0 48 -57 100q-52 48 -113 57h-825q-67 0 -127 -71q-49 -66 -49 -139q0 -139 139 -201l12 -6l13 -2h372l-487 -656q-49 -61 -49 -139z" />
<glyph unicode="[" horiz-adv-x="1042" d="M35 170v1077q5 42 22 88q14 27 47 60q71 71 146 71h448q69 0 136 -60q16 -15 26 -32h-2q2 -4 4 -7t4 -7l68 -66q4 -6 9 -11t9 -11l4 -2q17 -22 35 -73.5t18.5 -111t-43.5 -119t-116 -87.5l-16 -7l-17 -4h-176v-407h76l16 -6l17 -9q86 -41 127 -102l69 -70q64 -68 64 -168 q0 -90 -58 -164q-64 -79 -151 -79h-453q-78 8 -141 69l-62 62q-23 14 -45 37q-65 81 -65 139zM76 180q-2 -23 6 -48.5t49 -74.5q51 -49 119 -57h448q74 0 126 70q48 65 48 139q0 146 -163 211h-205v586h205l10 2q74 32 113.5 82t39.5 100.5t-8 77.5q-15 53 -35 80t-59 57 q-33 20 -72 20h-448q-57 0 -119 -61q-18 -18 -41 -57q-11 -39 -14 -64v-1063z" />
<glyph unicode="\" horiz-adv-x="1413" d="M29 1199.5q0 72.5 19.5 117.5t53.5 79q72 70 179 70q122 0 188 -82l25 -32l73 -74l768 -1022q49 -64 49 -133.5t-20.5 -114.5t-53.5 -76q-73 -69 -177.5 -69t-176.5 71l-63 64q-33 16 -59 53l-748 1000q-57 76 -57 148.5zM70 1224q0 -85 49 -149l747 -997q61 -78 170 -78 q87 0 148 58q63 62 63 143.5t-43 136.5l-766 1022q-54 65 -149.5 65t-157 -58t-61.5 -143z" />
<glyph unicode="]" horiz-adv-x="1042" d="M33 213q0 76 42 138.5t111 90.5l21 11l22 8h179v407h-68l-33 9l-20 10q-49 27 -80 57l-55 53q-119 73 -119 220q0 39 20 98q27 59 72 105t123 46h457q100 -17 157 -94q10 -14 21 -26l53 -54q72 -72 72 -133v-1098q0 -49 -46 -101q-12 -15 -30.5 -38t-59.5 -41t-73 -18 h-449q-66 0 -125 57l-65 66q-87 54 -118 166q-9 32 -9 61zM74 229q0 -47 12 -85t36 -70q55 -74 126 -74h448q27 0 59.5 15.5t48.5 33.5q38 40 52 63.5t14 51.5v1098q0 47 -61 108q-46 46 -113 55h-448q-99 0 -162 -139q-12 -37 -12 -87t32 -101q35 -49 95 -78l20 -10l17 -4 h211v-586h-211l-17 -6l-20 -11q-57 -25 -92 -76t-35 -98z" />
<glyph unicode="^" d="M33 838l6 63q14 51 41 84l377 506q76 100 205 100t204 -100l13 -16l59 -60q8 -6 14 -14t13 -17l381 -507l-3 2q30 -38 41 -82l-2 2l7 -25v-41q0 -104 -75 -175q-73 -69 -171 -69q-108 0 -174 66l-66 66q-35 18 -59 53l-96 125l-170 -226q-68 -84 -191 -84q-53 0 -94 17 q-45 23 -78 49l-76 74l-30 24q-76 76 -76 185zM74 834q0 -88 61 -150q31 -25 68 -43q41 -14 86 -14q99 0 160 71l204 273l6 6h7l211 -279q53 -71 163 -71q88 0 148 58q63 61 63 151v36q-6 18 -10 38t-27 48l-378 508q-66 84 -173.5 84t-173.5 -84l-378 -508q-20 -25 -31 -59 z" />
<glyph unicode="_" horiz-adv-x="1415" d="M33 -43q0 166 160 242l28 6l25 6h819q106 0 172 -102l68 -66q77 -77 77 -186q0 -41 -14 -78q-39 -103 -123 -147q-39 -21 -90 -21h-793q-80 0 -145 63l-61 62q-80 49 -107 135q-16 39 -16 86zM74 -43q0 -43 14 -74q18 -57 65.5 -96t106.5 -39h793q116 0 178 135 q14 41 14 77t-13 74t-38 68q-58 68 -129 68h-811l-23 -4l-24 -6q-133 -62 -133 -203z" />
<glyph unicode="`" horiz-adv-x="655" d="M31 1055v194q4 92 85 155q77 60 178 60q55 0 107 -28.5t86 -77.5l70 -70q37 -41 57 -90q6 -8 7 -20l2 -2l2 -13v-227q0 -83 -83 -140q-79 -53 -159 -53q-117 7 -188 78l-64 62q-6 4 -14 12q-86 61 -86 160zM72 1055q0 -78 69 -127q16 -10 48 -26.5t79.5 -18.5t83 9 t66.5 32q69 45 69 114v222l-2 12q-24 71 -77 111t-107.5 40t-91.5 -13t-67 -36q-66 -50 -70 -125v-194z" />
<glyph unicode="a" horiz-adv-x="1423" d="M35 193v671q0 106 44 214t103.5 177.5t135.5 116.5q150 94 326 94q343 0 527 -243l41 -41q83 -83 131 -201h3q15 -38 20 -57h-2q27 -81 27 -138v-708q0 -91 -81 -156q-75 -59 -165 -59q-43 0 -87 16q-60 22 -100 62l-59 59q-113 67 -113 193v165h-147v-280q0 -27 -16 -60 l-19 -34q-77 -121 -215 -121q-44 0 -98.5 21t-85.5 53l-66 63q-104 67 -104 193zM76 193q0 -66 40 -111t76 -60q52 -21 101 -21q51 0 97 23q48 23 79 72l20 41q12 27 13 43v316h325v-303q0 -61 40 -107.5t78 -61.5q54 -22 103 -22q73 0 136 48q69 54 69 130v709 q0 45 -10 78.5t-12 44t-5 18.5t-6 17.5t-10 21.5q-70 172 -215 264t-327 92t-327.5 -87t-215.5 -257q-49 -109 -49 -217v-671zM526 930q0 20 17 31l41 22l45 14l37 7q97 0 141 -74h-281z" />
<glyph unicode="b" horiz-adv-x="1417" d="M35 164v1102q3 40 22 73l49 58q69 69 146 69h592l22 -4l52 -12l86 -29q125 -57 192 -153l55 -54q133 -133 133 -354q0 -114 -55 -252q28 -58 41 -114l-2 2q16 -53 16 -133.5t-19 -150t-56 -128.5q-81 -128 -222 -182l-30 -11l-39 -12l-51 -12l-23 -4h-594q-29 4 -74 20 q-36 20 -61 45l-59 60q-18 10 -50 42t-51.5 62.5t-19.5 71.5zM76 164q0 -46 61 -109q18 -18 58 -41q14 -4 27.5 -8t29.5 -6h586l30 4l39 10l68 23q128 51 203 170q69 111 69 247.5t-59 258.5q30 66 40 108q19 74 19 142q0 141 -67.5 253.5t-204.5 172.5l-68 22l-39 10l-30 4 h-586q-25 0 -56.5 -14t-58.5 -41l-45 -53q-14 -25 -16 -55v-1098zM498 422v74h303q14 0 20 -11l4 -22q0 -41 -43 -41h-284zM498 930v71h284q43 0 43 -38q0 -14 -3 -22.5t-21 -10.5h-303z" />
<glyph unicode="c" horiz-adv-x="1423" d="M33 526v367q0 57 14 102l31 88q59 154 200 267q147 116 316 116h483q102 0 168 -106l62 -62q82 -82 82 -169t-39 -151.5t-111 -92.5h-2l-25 -11l-20 -6h-436q-53 -7 -82 -30q-35 -23 -35 -58v-317q6 -2 20 -2h441l20 -8v-2q80 -29 129 -101l66 -65q74 -74 74 -179 q-2 -16 -8.5 -40.5t-12.5 -49.5q-58 -153 -188 -153h-471q-57 0 -103 14l-86 31l-2 2q-112 34 -211 133l-37 35q-145 106 -208 275q-29 79 -29 173zM74 526q0 -151 104 -297q115 -144 252 -186l86 -31q43 -12 90 -12h471q107 0 160 141q11 45 14 70q0 61 -33.5 114.5 t-93.5 80.5l-22 8l-15 6h-428q-27 0 -58.5 9t-62 36t-36.5 72v346q0 49 49 86q39 28 102 37h434l15 4l22 10q59 25 93 79.5t34 102.5t-13 84.5t-36 67.5q-56 71 -125 71h-483q-151 0 -290 -108q-133 -102 -187 -248l-31 -86q-12 -43 -12 -90v-367z" />
<glyph unicode="d" horiz-adv-x="1423" d="M35 193v1044q9 95 61 147q25 33 70 57.5t86 24.5h471q51 0 100 -16l86 -29q167 -67 275 -204l45 -46q93 -97 129 -210h2q31 -77 31 -170v-361q0 -196 -135 -350q-120 -136 -312 -195q-8 -6 -22 -6h-2l2 -2l-62 -10l-31 -4h-481l-29 8q-59 18 -104 63l-59 60 q-72 45 -111 129q-10 35 -10 70zM76 193q0 -31 12 -64q47 -97 139 -123l13 -4l12 -2h471l31 4l59 10q310 103 405 336q35 84 35 182v361q0 86 -28 158q-35 117 -126 203.5t-202 127.5l-86 29q-47 14 -88 14h-471q-33 0 -67.5 -19.5t-55.5 -45.5q-43 -43 -53 -127v-1040z M504 420v584h82l69 -3q133 0 170 -112v-352q0 -46 -57 -84l-51 -23l-49 -8h-33l-49 -2h-82zM641 463h21l38 6l52 23q32 23 32 45v325q-10 2 -26 2l-70 2h-47v-403z" />
<glyph unicode="e" horiz-adv-x="1417" d="M33 498v420l4 26l8 43q19 88 68 176q82 133 204.5 218t276.5 85h477q47 0 91 -25.5t69 -62.5q4 -4 10 -16l66 -64q30 -30 43 -60q32 -78 32 -145t-44 -127q-43 -57 -132 -94l-16 -4h-330q2 -4 7 -9t7.5 -9t6.5 -8l65 -66q6 -6 12.5 -12t10.5 -14q39 -47 39 -140.5 t-41 -146.5q0 -2 -2 -2h125l18 -6v-2l10 -2q105 -52 137 -117l50 -51q20 -15 37 -37q40 -47 40 -135q-5 -85 -53 -160h-2l2 -2q-64 -86 -155 -86h-472q-39 0 -88 10l-82 29q-131 49 -221 139l-39 37q-186 133 -231 375q-6 8 -6 28zM74 502l2 -17q0 -12 4 -20 q31 -150 122 -261.5t240 -166.5l76 -27q49 -10 82 -10h471q79 0 127 72q10 16 26.5 47t20.5 96q0 74 -39 119q-47 63 -114 82l-11 4h-428q-20 0 -51 10l-45 23l-22 20l-15 16q16 5 53 5h6q35 0 77 6q119 16 182 88q33 44 33 123q0 82 -33 120q-57 80 -195 93l-123 6 q2 14 19 31l32 24l39 14l37 7h434l11 2q74 32 113.5 82t39.5 103.5t-8 78.5q-29 93 -94 132q-35 21 -72 21h-477q-141 0 -255 -78.5t-189 -201.5q-48 -93 -64 -166l-8 -41l-4 -27v-409z" />
<glyph unicode="f" d="M35 176v717q0 57 14 102l31 88q39 98 78 146q80 104 191.5 170.5t246.5 66.5h483q53 0 95 -32.5t73 -73.5l60 -60q84 -80 84 -188q0 -74 -41 -136.5t-107 -90.5h-2l-27 -11l-20 -6h-328l19 -24l65 -66h-2q0 2 -2 2l4 -2q62 -62 62 -168q0 -61 -37 -133q-39 -66 -109 -92 l-73 -25h-154v-258q0 -101 -76 -172q-73 -67 -174 -67q-39 0 -98 20q-57 25 -92 62l-60 57q-104 67 -104 174zM76 176q0 -101 139 -164q37 -12 75 -12t77 15.5t69 42.5q66 62 66 147v293h184l27 8l39 14q57 20 82 64q40 74 40 140q0 122 -116 175q-49 18 -113 25l-123 6 q2 18 19 31l37 24l40 14l37 7h435l14 4l22 10q57 25 92 78t35 112q0 118 -104 195q-33 20 -70 20h-483q-123 0 -227.5 -62.5t-178.5 -158.5q-39 -52 -71 -135l-31 -86q-12 -43 -12 -90v-717z" />
<glyph unicode="g" horiz-adv-x="1421" d="M33 561v303q4 237 170 416q169 182 397 186h356l62 -18l43 -25q43 -38 61 -67l66 -64q74 -74 74 -185.5t-80 -180.5q47 -33 73 -76l64 -64q59 -59 70 -141v-106q0 -306 -156 -486q-165 -190 -469 -190q-179 0 -350 96q-50 32 -92 76l-35 33q-147 108 -209 280l-37 115 q-8 33 -8 98zM74 561q0 -47 12 -102l31 -97q61 -170 213 -270q80 -46 157.5 -69t201 -23t233.5 48t184 133q145 167 145 460v102q-8 66 -59 121.5t-127 59.5h-297q-79 0 -134 -65q-54 -63 -54 -146q0 -190 225 -217q-18 -39 -59 -56.5t-82 -17.5h-33q-10 4 -15.5 5t-9.5 3 q-59 23 -90 68q-10 25 -14 57v315q4 55 47 93t104 43h310l8 2q153 66 153 206q0 106 -84 175l-41 22l-49 14h-350q-106 -2 -201.5 -49t-167 -124.5t-113.5 -179t-44 -208.5v-303zM639 463h43l-37 39q-4 4 -6 4v-43z" />
<glyph unicode="h" d="M35 162v1102l12 47l16 30q35 66 95.5 95.5t125 29.5t124 -31.5t94.5 -91.5l61 -59q37 -37 53 -78l17 -49v-186h153v295l7 20l12 29q72 151 231 151h2q96 -6 151.5 -47t76.5 -78l65 -63q53 -53 53 -125v-1085q0 -82 -84 -152q-76 -53 -170.5 -53t-166.5 71l-66 66 q-61 39 -92 109l-10 20l-9 33v196h-153v-295l-17 -51q-31 -74 -93 -111.5t-152 -37.5t-162 71l-64 64q-70 39 -96 115l-6 14zM76 164l4 -17l8 -20q25 -61 79 -94t118 -33q63 0 116.5 31.5t79.5 95.5l8 25l7 18v326h331v-332l4 -17l11 -20q27 -59 80 -93t99 -34q89 0 157 47 q69 55 69 123v1085q0 74 -71 123q-67 42 -138 47q-135 0 -196 -127l-11 -22l-4 -14v-332h-331v325l-15 43q-25 59 -80 93t-113 34q-132 0 -188 -102l-16 -31l-8 -30v-1098z" />
<glyph unicode="i" horiz-adv-x="663" d="M35 154v1106q0 23 16 59l19 33q70 112 208 112q64 0 128.5 -33.5t99.5 -93.5l63 -61q60 -60 60 -131v-1073q0 -90 -84 -156q-22 -17 -73.5 -35t-88.5 -18q-102 0 -170 67l-61 62q-70 39 -105 125q-8 10 -8 22h-2v2zM76 162l6 -23q55 -139 199 -139q78 0 141 47 q70 56 70 127v1073q0 73 -70 127q-65 49 -130 49q-128 0 -186 -92l-18 -31q-12 -25 -12 -40v-1098zM154 18q0 -4 4 -4z" />
<glyph unicode="j" d="M29 584q0 102 69 178q82 76 183 76q68 0 126 -33t91 -86l65 -64q47 -47 60 -104h-2q18 -53 18 -88h16l45 6l37 16v2q43 29 43 56v690q0 98 84 168q69 65 172 65q96 0 180 -74q25 -22 44 -51l63 -63q61 -61 61 -137v-707q0 -57 -16 -102l-29 -90q-30 -89 -94 -166 q-98 -111 -215 -162t-261 -51t-260 48t-194 126l-47 45q-239 193 -239 502zM70 584q0 -252 168 -420q74 -74 182 -119t245 -45q275 0 451 201q55 68 88 155l29 88q14 49 14 93v706q0 74 -71 131q-63 51 -140 51q-90 0 -145 -55q-70 -56 -70 -137v-690q0 -50 -57 -88l-53 -25 l-49 -8q-61 0 -90 17.5t-50 49.5l-20 72q0 33 -17 86q-14 66 -73.5 108t-139 42t-143.5 -62q-59 -65 -59 -151z" />
<glyph unicode="k" d="M35 170v1085q0 47 25.5 88t60.5 66q69 57 178 57q49 0 108.5 -31.5t94.5 -91.5l59 -57h-2l4 -2q37 -37 53 -78l13 -41l258 252q36 36 88 45v-2q8 0 20 6h43q136 0 209 -108l66 -66q72 -72 71 -188l-8 -62q-16 -59 -45 -88l-315 -321l311 -363q57 -63 57 -162t-67 -174 q-71 -71 -173 -71h-3q-101 0 -183 78l-55 55q-37 23 -86 80l-184 215v-228l-17 -51q-31 -74 -93 -111.5t-138 -37.5q-120 7 -188 80l-66 63q-4 2 -5 4t-3 4q-88 57 -88 156zM76 170q0 -74 71 -123q67 -42 138 -47q63 0 116.5 31.5t79.5 95.5l8 25l7 18v344l352 -412 q43 -49 85 -75.5t118.5 -26.5t138.5 61q57 63 57 148.5t-49 140.5l-319 375l-7 12v6l332 338q23 23 33 60l10 69q0 94 -55 154.5t-154 60.5h-37q-20 -6 -41.5 -10t-44.5 -26l-419 -410v276l-15 43q-25 59 -80 93t-100 34q-94 0 -156 -49q-29 -20 -49 -53t-20 -68v-1085z" />
<glyph unicode="l" horiz-adv-x="1417" d="M33 528l2 -20q0 -20 6 -29l4 -35l6 -28q54 -187 195 -316q20 -20 45 -39l45 -45q4 -4 8 -7t24 -19q62 -53 144 -89t184 -36h484q93 0 153 84l-2 2q24 27 40 71q17 45 17 88q0 67 -40 132h2q-18 31 -41 49q2 0 2 -2h2l-64 61q-42 69 -129 101v2l-20 8h-463v663 q0 83 -66 154l-61 61q-14 23 -43 52q-91 75 -177 75q-98 0 -173 -59q-84 -66 -84 -158v-721zM74 532v717q0 76 70 127q65 49 140 49t148 -57q68 -64 68 -141v-684q3 -17 14 -45l37 -41q49 -37 96 -37h440l37 -14q61 -29 94 -81q34 -53 34 -109q0 -35 -13 -71 q-32 -92 -93 -127q-34 -18 -69 -18h-483q-86 0 -174 35q-252 123 -328 393l-6 27l-6 34q-4 16 -4 23z" />
<glyph unicode="m" horiz-adv-x="1679" d="M35 193v1040q0 98 80 168q69 65 172 65q136 0 202 -96l9 -12l67 -68q10 -10 23 -26l217 -326l289 432q67 96 202 96q87 0 170 -65q31 -25 52 -58l65 -65q62 -62 62 -154v-1028q0 -102 -75 -170q-71 -63 -173 -63t-176 74l-64 63q-61 37 -100 117l-13 28l-2 9 q-54 -38 -135 -38q-54 0 -121 17q-35 14 -63 43l-66 66l-18 12v-176q0 -27 -16 -60l-19 -34q-77 -121 -215 -121q-44 0 -98.5 21t-85.5 53l-66 63q-104 67 -104 193zM76 193q0 -66 40 -111t76 -60q52 -21 101 -21q51 0 97 23q48 23 79 72l20 41q12 27 13 43v328l129 -189 q31 -37 71 -53q43 -12 88 -12q116 0 162 65l129 189v-332l4 -18l11 -25q29 -61 81 -97t106 -36t92 14.5t68 39.5q64 55 64 145v1028q0 95 -65 141q-66 57 -146 57q-116 0 -170 -77l-333 -500l-336 500q-29 39 -76 58t-89 19q-96 0 -151 -55q-65 -55 -65 -137v-1040z" />
<glyph unicode="n" horiz-adv-x="1423" d="M35 193v671q0 55 14 111l31 100q33 96 95.5 171t136.5 123q151 97 328 97q356 0 534 -241l34 -35q-2 4 -4 5q87 -76 139 -214h3q15 -38 20 -57h-2q27 -81 27 -138v-708q0 -91 -81 -156q-75 -59 -165 -59q-43 0 -87 16q-60 22 -100 62l-59 59q-113 67 -113 193v671l-14 2 q-45 -6 -69.5 -14t-44 -30.5t-19.5 -53.5v-690q0 -27 -16 -60l-19 -34q-77 -121 -215 -121q-44 0 -98.5 21t-85.5 53l-66 63q-104 67 -104 193zM76 193q0 -66 40 -111t76 -60q52 -21 101 -21q51 0 97 23q48 23 79 72l20 41q12 27 13 43v690q0 45 32.5 78t66.5 43t59.5 11.5 t53 -7t53.5 -23.5q60 -36 60 -89v-690q0 -61 40 -107.5t78 -61.5q54 -22 103 -22q73 0 136 48q69 54 69 130v709q0 45 -10 78.5t-12 44t-5 18.5t-6 17.5t-10 21.5q-59 168 -214 266q-144 90 -333 90t-331 -94q-68 -41 -125 -110.5t-88 -157.5l-31 -98q-12 -49 -12 -101v-671 z" />
<glyph unicode="o" horiz-adv-x="1415" d="M33 514v401l4 50l6 24l20 62l15 39q78 186 229 281t347.5 95t355.5 -96q96 -61 159 -151l39 -37q82 -84 129 -197l4 -16l5 -2q31 -77 36 -164v-385q0 -55 -16 -101l-29 -84q-78 -182 -228.5 -276t-346.5 -94q-271 0 -445 174l-43 43q-133 99 -196 256q-45 102 -45 178z M74 514q0 -80 43 -164q70 -172 214 -261t328 -89t327.5 89t215.5 261l29 82q14 49 14 88v385q-4 72 -18.5 109t-24.5 61q-106 253 -366 327q-79 23 -177 23q-186 0 -327.5 -88t-214.5 -262l-15 -37l-14 -45l-10 -45l-4 -37v-397zM496 567v291q0 66 51 106t114.5 40 t112.5 -41t49 -111v-279q0 -68 -50 -109.5t-112.5 -41.5t-113.5 39t-51 106zM633 465q8 -2 40.5 -2t70.5 30.5t38 79.5v291l-20 2q-49 0 -89 -29.5t-40 -80.5v-291z" />
<glyph unicode="p" horiz-adv-x="1421" d="M35 176v1075q2 45 11 60.5t15.5 27t12.5 21.5t13 17t29 30q58 59 136 59h616q8 -4 11 -4l20 -4q10 0 12 -1t9 -3l69 -29q129 -61 211 -165l55 -56q135 -135 136 -340q0 -160 -83 -286q-84 -127 -237 -181l-76 -24q-43 -12 -73 -13h-283v-264q0 -99 -81 -168 q-77 -65 -169 -65q-39 0 -98 20q-57 25 -92 62l-60 57q-104 67 -104 174zM76 176q0 -101 139 -164q37 -12 73 -12t74.5 14.5t69.5 41.5q70 59 70 143v299h317q25 0 66 10l73 24q141 49 218 168.5t77 266.5t-73.5 253.5t-204.5 168.5l-68 26q-16 4 -26.5 6t-14.5 4h-614 q-60 0 -119 -59q-18 -18 -26 -33t-15 -22q-14 -27 -16 -62v-1073zM504 930v74h278l23 -7q18 -4 20 -12v-43l-18 -12h-303z" />
<glyph unicode="q" horiz-adv-x="1423" d="M33 838q0 61 20.5 155.5t75.5 186.5t135 156q163 132 400 132q150 0 284.5 -60t220.5 -177l39 -39q-2 4 -4 5q93 -81 142 -218l26 -88h2q16 -41 17 -105v-350q0 -135 -69 -249t-159 -197q-33 -33 -86 -60l-61 -26l-2 -37v-2q-9 -92 -47 -152q-35 -51 -80 -76.5 t-111 -25.5q-115 0 -178 61l-66 66q-44 27 -72 72q-39 63 -50 151q-4 4 -8.5 6t-16.5 12q-38 32 -61 56l-41 39q-130 92 -199 258q-34 69 -46 179q-1 9 -1 26l-2 30v148zM74 838l2 -123v-146l2 -30q0 -23 4 -35q0 -70 36 -151q65 -147 193 -249q51 -41 140 -71q0 -33 3 -84 t34 -102.5t72.5 -75t103.5 -23.5q113 0 172 88q23 35 30.5 78t10 55t2.5 25v33l6 6l76 33q45 20 75 51q84 78 151 187.5t66 234.5v350q0 51 -14 92l-29 90q-59 168 -214 266q-144 90 -348.5 90t-356.5 -123q-180 -147 -213 -403q-4 -31 -4 -63zM504 557v315q0 86 104 123 l58 9q29 0 51 -9q27 -6 51 -22q18 -8 41 -37q14 -20 16 -53v-338q0 -53 -55 -90l-51 -23l-51 -8h-33q-18 6 -33.5 10t-44.5 23l-39 43q-10 25 -14 57zM641 465h21l40 6l52 23q31 25 30 51v319l-12 2h-4l-45 -6q-82 -28 -82 -90v-305z" />
<glyph unicode="r" d="M35 170v1090q6 39 16 67q4 4 10.5 15.5t12.5 21.5q32 53 102 84q36 18 76 18h592l22 -4l52 -12l38 -12l31 -11q132 -58 205 -159l55 -54q137 -137 137 -352l-4 -94q-11 -67 -22 -92l-8 -21l-13 -22h2l-8 -19l-2 -6l2 -2l37 -92l-2 2q18 -41 18 -88v-360q0 -82 -84 -152 q-76 -53 -142 -53q-123 0 -195 74l-64 63q-63 39 -94 109h-2l-12 30l-5 21v198h-153v-295l-17 -51q-31 -74 -93 -111.5t-138 -37.5q-120 7 -188 80l-66 63q-4 2 -5 4t-3 4q-88 57 -88 156zM76 170q0 -74 71 -123q67 -42 138 -47q63 0 116.5 31.5t79.5 95.5l8 25l7 18v326 h305q14 -7 26 -19v-307l4 -18l11 -25q25 -59 80 -93t100 -34q88 0 156 47q69 55 69 123v360q0 43 -14 74l-29 72l-16 37l16 37l10 20l9 21q14 37 20 86l4 90q0 141 -68.5 253.5t-203.5 168.5l-68 22l-39 10l-30 4h-586q-29 0 -61 -14t-54 -36.5t-30 -37t-15 -22.5 q-14 -27 -16 -60v-1085zM498 930v71h284q43 0 43 -38q0 -14 -3 -22.5t-21 -10.5h-303z" />
<glyph unicode="s" horiz-adv-x="1421" d="M33 221.5q0 71.5 43 129t114 93.5q10 10 23 11l18 6h101q-21 15 -49 43l-45 43q-167 134 -200 325q-5 29 -5 91q0 162 82 289.5t235 181.5l60 20q33 12 75 12h592q53 0 95 -32.5t73 -73.5l60 -60q84 -80 84 -188q0 -74 -41 -136.5t-107 -90.5h-2l-27 -11l-20 -6h-100 q47 -33 106 -108l45 -45q35 -35 57 -70l3 -2q86 -111 86 -277q0 -323 -297 -460l2 -2q-75 -41 -156 -41h-586q-72 0 -131 57l-67 68q-57 35 -89 98.5t-32 135zM74 209q0 -76 48 -137q55 -72 128 -72h586q74 0 137 37q135 61 206.5 169.5t71.5 256.5q0 157 -80 262 q-80 121 -215 168l-73 22q-41 12 -66 13h-297l-18 14v49l12 6l25 9h548l15 4l22 10q57 25 92 78t35 112q0 118 -104 195q-33 20 -70 20h-592q-31 0 -61 -10l-59 -20q-141 -49 -216 -167t-75 -265q0 -84 8 -106.5t22 -70.5q34 -108 162 -204q66 -41 140 -62l55 -14l26 -6 l15 -2h303l18 -15v-43l-10 -8l-8 -4l-25 -8h-542l-25 -8q-139 -68 -139 -203z" />
<glyph unicode="t" horiz-adv-x="1417" d="M45 1290q14 37 33.5 68t43.5 56q53 52 126 52h827q47 0 90 -25.5t59.5 -50t18.5 -26.5l66 -66q34 -34 59 -100l2 -2q16 -32 16 -101t-44 -129q-43 -57 -132 -94l-16 -4h-184v-811l-9 -24l-6 -13h-2q-72 -157 -227 -157q-106 0 -178 71l-62 62q-80 45 -106 133l-10 21 l-2 22v696h-70l-33 9l-20 10q-45 23 -76 53l-66 66q-112 77 -112 206q0 41 14 78zM72 1214q0 -127 127 -194l20 -10l17 -4h213v-830l2 -14l8 -17q20 -68 76.5 -106.5t128.5 -38.5q135 0 198 139l6 13l4 12v842h213l11 2q153 66 153 206q0 71 -49 140q-20 29 -55 50t-70 21 h-827q-97 0 -164 -141q-12 -37 -12 -70z" />
<glyph unicode="u" horiz-adv-x="1417" d="M33 520v735q0 47 25.5 88t60.5 66q69 57 178 57q49 0 108.5 -31.5t94.5 -91.5l61 -59q37 -37 53 -78l17 -49v-692q8 -2 33.5 -2t58.5 11t43 40l18 57v695l4 20l13 29q33 76 96.5 113.5t138.5 37.5q96 -6 151.5 -47t76.5 -78l65 -63q53 -53 53 -125v-735q0 -55 -16 -101 l-29 -84q-78 -182 -228.5 -276t-346.5 -94q-271 0 -445 174l-45 45q-130 97 -194 256q-45 102 -45 182zM74 520q0 -82 43 -170q70 -172 214 -261t328 -89t327.5 89t215.5 261l29 82q14 49 14 88v735q0 74 -71 123q-67 42 -138 47q-63 0 -116.5 -31.5t-79.5 -95.5l-11 -24 l-4 -19v-688l-8 -28l-12 -37q-14 -43 -59.5 -61.5t-96.5 -18.5t-104 41q-51 45 -51 110v682l-15 43q-25 59 -80 93t-100 34q-94 0 -156 -49q-29 -20 -49 -53t-20 -68v-735z" />
<glyph unicode="v" d="M31 1176v38q0 106 75 182q68 70 177 70q61 0 123.5 -31.5t95.5 -84.5l65 -66q35 -35 45 -70l74 -204l115 297q31 78 95.5 118.5t137.5 40.5q144 0 217 -114l64 -64q72 -72 71 -178l-2 -33l-4 -22l-395 -1055q-29 -74 -92.5 -105.5t-132.5 -31.5q-104 0 -176 71l-64 64 q-72 45 -100 125l-383 1030zM72 1186l6 -27l381 -1020q20 -63 75.5 -101t118.5 -38q151 0 197 115l393 1050l4 23l2 26q0 88 -60 150q-59 61 -138 61q-163 0 -211 -133l-170 -446q-4 -12 -13 -19l-180 478q-20 55 -77.5 87.5t-108.5 32.5t-89 -16t-68 -44q-62 -58 -62 -151 v-28z" />
<glyph unicode="w" horiz-adv-x="1679" d="M35 199v1028q0 51 18 94q56 101 140 127q41 18 100 18q122 0 207 -116l63 -64q33 -33 60 -86l6 -22h2l2 -11q25 18 51 25v2q53 18 91 18q146 0 212 -84l17 -26l36 -35v178q0 26 17 62l26 53q35 55 94.5 80.5t113.5 25.5q92 0 175 -65q31 -25 52 -58l65 -65 q62 -62 62 -154v-1034q0 -101 -80 -168q-63 -59 -166 -59q-59 0 -104.5 19t-71.5 46l-66 66q-37 20 -63 59l-220 330l-286 -428q-35 -49 -91.5 -70.5t-109.5 -21.5q-72 6 -105.5 23.5t-50 30.5t-18.5 14t-6 6l-70 69l-24 19q-78 65 -78 174zM76 199q0 -88 63 -144 q25 -20 54.5 -35.5t84.5 -17.5h11q113 0 168 76l336 500l333 -500q58 -78 170 -78q37 0 76 13t69 39q66 57 66 141v1034q0 95 -65 141q-66 57 -131 57q-139 0 -197 -96l-20 -41q-12 -25 -13 -43v-327l-129 188q-54 65 -159 65q-46 0 -89 -13t-73 -52l-129 -188v333l-15 41 q-29 61 -80.5 97t-101 36t-63 -3t-44 -14t-50.5 -32q-39 -38 -56 -69q-16 -43 -16 -80v-1028zM1573 1286l4 -4z" />
<glyph unicode="x" horiz-adv-x="1425" d="M35 209q0 35 14 81t39 75l236 317l20 31l-256 348q-53 53 -53 156q0 107 73 179q72 70 179 70q125 0 200 -94l19 -26l61 -60h-2l4 -2q4 -4 5 -7q1 -4 12 -11l88 -117l178 235q37 47 88 62v2q43 18 106.5 18t121 -33.5t89.5 -89.5l60 -57q74 -74 74 -176l-9 -59 q-16 -59 -34 -80l-269 -363l164 -217h-2q14 -14 49 -69l-2 2l49 -66l9 -6q28 -36 40 -82l-2 2l7 -25v-41q0 -107 -73 -174q-74 -69 -173 -69q-37 0 -105 18q-48 24 -71 47l-66 66q-24 14 -51 45l-100 133l-166 -217q-73 -92 -197 -92q-88 0 -172 67l-76 76q-8 4 -15 10.5 t-15 12.5q-76 76 -76 180zM76 202.5q0 -81.5 61 -143.5q74 -60 152 -60q44 0 90 19q45 19 78 60l205 272h6l217 -284q27 -33 71 -52q49 -14 86 -14q88 0 149.5 58.5t61.5 150.5v37q-6 18 -10 37.5t-26 48.5l-58 74q-35 55 -47 67l-178 240l283 381q20 27 28 57l8 66 q0 90 -62 148q-64 60 -149 60q-43 0 -85 -14t-72 -51l-211 -279l-6 -6h-6l-205 273q-60 77 -159 77t-160.5 -59t-61.5 -141t43 -138l264 -356l12 -18l-276 -375q-43 -54 -43 -135.5z" />
<glyph unicode="y" horiz-adv-x="1413" d="M31 1020v235q0 47 25.5 88t60.5 68q71 55 151 55q150 0 224 -112l67 -66q52 -52 66 -129v-155q0 -16 4 -33h28q129 0 129 172v123q29 138 162 186q34 12 82 12h14q85 -3 141 -44.5t77 -78.5l65 -63q53 -53 53 -125v-235q0 -112 -77 -246l-68 -97l-86 -90l-66 -41l-14 -8 l-29 -14l-30 -19v-319q0 -90 -83 -158q-76 -63 -167 -63q-107 0 -178 71l-66 66q-66 39 -90 106l-12 31l-13 43v283q-45 27 -88 74l-37 34q-102 79 -146 154t-61.5 118.5t-25.5 74.5q-12 48 -12 102zM72 1020q0 -78 26.5 -138.5t57.5 -115.5q82 -128 188 -186l18 -11l31 -14 l29 -16l20 -9v-344l9 -28l14 -37q20 -57 76.5 -89t104.5 -32t86 14.5t68 39.5q72 57 72 132v344l99 50l55 36l78 82l70 99q69 118 69 223v235q0 74 -72 123q-16 10 -47.5 26.5t-89.5 20.5q-78 0 -133 -44t-74 -126v-112q0 -95 -25.5 -135.5t-58 -59t-94.5 -18.5t-100 31 q-62 55 -62 182v112q-14 78 -72.5 124t-133.5 46q-29 0 -70 -13t-70 -34q-69 -52 -69 -123v-235z" />
<glyph unicode="z" horiz-adv-x="1425" d="M35 211l4 63q8 37 29 64l393 530h-125l-17 2l-18 11h-2q-55 27 -88 61l-64 62q-112 75 -112 208q0 85 61 167q66 87 156 87h827q103 0 168 -104l62 -62q39 -37 60.5 -88t21.5 -98q0 -86 -52 -149h2l-376 -504h137l20 -8v-2q87 -32 135 -113l56 -55q0 2 -2 2v2 q80 -80 80 -181q0 -58 -35 -126q-8 -15 -23 -31l2 -2q-62 -84 -153 -84h-828q-70 0 -129 57l-65 66q-89 55 -117 164q-8 32 -8 61zM76 211q0 -75 48 -139q54 -72 128 -72h827q111 0 162 145q12 33 12 79t-32.5 98.5t-94.5 83.5l-22 8l-14 6h-377l497 667q43 55 43 130 q0 71 -49 137q-52 71 -125 71h-827q-71 0 -126 -73q-50 -65 -50 -138q0 -137 139 -200l12 -6l13 -2h372l-512 -693q-14 -14 -20 -49z" />
<glyph unicode="{" horiz-adv-x="1292" d="M29 713q0 68 24 114q39 66 94.5 100t141.5 42q62 237 198 350q166 147 408 147q72 0 134.5 -30.5t96.5 -89.5l62 -62h-2l4 -2q67 -67 67 -164.5t-56 -165t-136 -82.5l-72 -12q-45 -8 -77.5 -27.5t-32.5 -68.5v-293l32 -6v-2l46 -4q96 -20 145 -90q2 -6 10 -15l68 -67 q10 -10 26 -32t31.5 -65t15.5 -90.5t-20 -93t-56 -76.5q-74 -65 -185.5 -65t-217.5 37q-125 49 -190 114q-10 4 -13 11l-59 57q-6 6 -13.5 11t-13.5 11q-125 109 -180 271q-73 27 -108 65l-64 62q-108 66 -108 211zM70 698.5q0 -71.5 41 -119t87 -61.5q72 -22 119 -22l7 -7 q36 -215 192 -354q75 -62 172 -100q104 -35 179 -35t116 14.5t71 41.5q66 56 66 155q0 75 -47 131q-37 58 -117 74l-51 6l-53 10l-47 19q-14 8 -35 38l-16 31l-9 35v309q0 70 42 95.5t98 35.5l71 13q68 12 116 70.5t48 121.5t-18.5 102t-49.5 67q-60 56 -157 56 q-227 0 -381 -137q-142 -117 -190 -358q-86 0 -140.5 -28t-93.5 -93q-20 -39 -20 -110.5z" />
<glyph unicode="|" horiz-adv-x="669" d="M35 -53v1284q0 83 49 137q12 14 29 31q67 67 166 67q102 0 187 -74q26 -22 44 -51l63 -63q62 -62 62 -137v-1315q0 -89 -84 -154q-80 -61 -146 -61q-120 0 -194 74l-64 63q-112 72 -112 199zM76 -53q0 -79 64 -141q60 -58 147 -58q74 0 139 52q72 56 72 128v1315 q0 75 -72 131q-64 51 -147 51t-143 -60t-60 -134v-1284z" />
<glyph unicode="}" horiz-adv-x="1288" d="M35 205q0 66 16 90q16 53 64.5 101t117.5 61l64 10q70 9 94 41q12 12 12 41v313q-6 2 -18 2l-61 6q-67 16 -94 44l-78 77q-117 85 -117 230q0 111 75 181q70 64 185 64q175 0 328 -92v2q106 -63 182 -166l37 -36q76 -76 119 -168q8 -24 16 -54q104 -35 151 -104l70 -70 q61 -61 62 -168q0 -179 -169 -232q-49 -16 -94 -20q-51 -221 -203 -354q-159 -141 -386 -141q-106 0 -185 57q-4 4 -9 8t-9 9l-68 67q-12 6 -20 14q-82 64 -82 187zM76 205q0 -98 67 -154q70 -51 171.5 -51t195.5 37t167 103q147 132 189 349l6 7q104 0 177 51 q73 55 73 153.5t-41 144.5t-112 68q-25 4 -37 7.5t-28.5 5.5t-31.5 4l-24 82q-6 41 -31 97.5t-83 120.5t-122 104q-147 91 -317 91q-92 0 -155.5 -53t-63.5 -151q0 -122 88 -187q33 -19 69 -26l54 -7q29 0 53 -10q59 -14 86 -61l10 -25l8 -24v-332q0 -45 -20 -68 q-36 -41 -121 -55l-63 -10q-57 -10 -98.5 -48t-51.5 -77q-14 -55 -14 -86z" />
<glyph unicode="~" horiz-adv-x="1669" d="M33 551v102q0 122 31 221q67 217 249 295q92 43 215 43q258 0 404 -186l67 -65h-2l4 -3q10 -12 21.5 -25t21.5 -28l5 10l6 17q72 158 239 158q82 -6 146 -52v2q49 -37 69 -67l74 -74q16 -16 27 -37l-2 2q29 -39 28 -80v-241q0 -35 -14 -76l-20 -53q-145 -301 -459 -301 q-85 0 -150 18q-110 43 -136 60q-34 23 -73 59l-45 45q-66 41 -116 119q-26 -81 -93 -133q-57 -45 -143 -45q-75 0 -129 38q-20 13 -41 29l-74 72q-90 67 -110 176zM74 559q12 -72 69 -133q41 -29 62 -37q41 -16 76 -16q80 0 120 33t56 58q18 28 37 85l8 84v90l4 8l2 10l6 7 h43q18 -20 19 -52q2 -25 8 -63l4 -23l6 -26l6 -19q35 -147 164 -235q46 -27 131 -60q83 -20 145 -20q295 0 422 268l25 64q12 37 12 63v242q0 33 -22 61q-21 40 -76 68t-107 33q-143 0 -200 -134l-11 -24l-4 -17v-169q0 -16 -14 -25l-25 -6q-20 0 -32 14l-13 37l-2 43l-2 33 l-4 20l-8 29q-35 148 -166 238q-122 83 -256.5 83t-223.5 -39q-172 -75 -233 -274q-27 -98 -26 -205v-94zM1034 709v2v-2z" />
<glyph unicode="&#xad;" d="M31 716q0 81 65 160q69 87 154 87h813q57 0 107.5 -32t80.5 -83l60 -60q41 -41 58 -88t17 -81q0 -131 -97 -213q-52 -44 -124 -44h-805q-50 0 -94 23q-31 20 -53 43l-53 53q-129 85 -129 235zM72 730.5q0 -55.5 17 -107.5t93 -105q33 -18 76 -18h805q59 0 103 37.5 t63.5 88t19.5 89.5t-14 69q-18 59 -66.5 98.5t-105.5 39.5h-805q-73 4 -131 -68q-55 -68 -55 -123.5zM176 471l90 -86l-86 86h-4z" />
<glyph unicode="&#xc6;" horiz-adv-x="2179" d="M35 180v701q0 111 47 216t125 187t178 132t209 50h1239q101 0 168 -104l61 -62q39 -37 60.5 -88t21.5 -113.5t-39 -124t-110 -89.5h-2l-25 -11l-20 -6h-328q8 -8 14 -20l68 -68q0 2 -2 2v2q65 -65 65 -167.5t-41 -155.5h131l33 -17v2q80 -39 121 -100l64 -63 q16 -16 32 -43h-2q41 -63 41 -118t-13 -90q-20 -56 -44 -83l2 -2q-62 -84 -154 -84h-829q-49 6 -68 14q-29 20 -45 33.5t-30 23.5l-68 66q-16 12 -22.5 19.5t-9.5 8.5t-17.5 18.5t-18.5 22.5t-10 17.5t-9 16t-10 17.5q-12 24 -12 66v172h-147v-278l-12 -43l-13 -33 q-29 -70 -94 -106q-66 -35 -121 -35t-87 12q-38 14 -66.5 31.5t-40.5 30.5l-70 67q-4 4 -8 6t-8 6q-84 68 -84 164zM76 180q0 -73 69 -131q120 -89 256 -18q53 31 78 90l15 37l8 28v310h325v-310q0 -36 14.5 -60.5t20.5 -35t20 -24.5q28 -28 60 -50q31 -14 64 -16h827 q91 0 142 98q32 61 32 116.5t-33 108t-94 80.5l-22 11l-15 6h-583v76l126 2q57 0 116 20q126 43 126 195q0 80 -32 123t-73 59q-59 23 -137 31l-126 4v76h583l15 4l22 10q59 25 93 78t34 102.5t-13.5 86t-35.5 67.5q-53 71 -125 71h-1239q-98 0 -192.5 -46t-166 -122.5 t-115.5 -175t-44 -200.5v-701zM522 930q25 45 92 65q21 6 41 6h33l51 3h84v-74h-301zM2021 317h2h-2z" />
<glyph unicode="&#x2000;" horiz-adv-x="861" />
<glyph unicode="&#x2001;" horiz-adv-x="1722" />
<glyph unicode="&#x2002;" horiz-adv-x="861" />
<glyph unicode="&#x2003;" horiz-adv-x="1722" />
<glyph unicode="&#x2004;" horiz-adv-x="574" />
<glyph unicode="&#x2005;" horiz-adv-x="430" />
<glyph unicode="&#x2006;" horiz-adv-x="287" />
<glyph unicode="&#x2007;" horiz-adv-x="287" />
<glyph unicode="&#x2008;" horiz-adv-x="215" />
<glyph unicode="&#x2009;" horiz-adv-x="344" />
<glyph unicode="&#x200a;" horiz-adv-x="95" />
<glyph unicode="&#x2010;" d="M31 716q0 81 65 160q69 87 154 87h813q57 0 107.5 -32t80.5 -83l60 -60q41 -41 58 -88t17 -81q0 -131 -97 -213q-52 -44 -124 -44h-805q-50 0 -94 23q-31 20 -53 43l-53 53q-129 85 -129 235zM72 730.5q0 -55.5 17 -107.5t93 -105q33 -18 76 -18h805q59 0 103 37.5 t63.5 88t19.5 89.5t-14 69q-18 59 -66.5 98.5t-105.5 39.5h-805q-73 4 -131 -68q-55 -68 -55 -123.5zM176 471l90 -86l-86 86h-4z" />
<glyph unicode="&#x2011;" d="M31 716q0 81 65 160q69 87 154 87h813q57 0 107.5 -32t80.5 -83l60 -60q41 -41 58 -88t17 -81q0 -131 -97 -213q-52 -44 -124 -44h-805q-50 0 -94 23q-31 20 -53 43l-53 53q-129 85 -129 235zM72 730.5q0 -55.5 17 -107.5t93 -105q33 -18 76 -18h805q59 0 103 37.5 t63.5 88t19.5 89.5t-14 69q-18 59 -66.5 98.5t-105.5 39.5h-805q-73 4 -131 -68q-55 -68 -55 -123.5zM176 471l90 -86l-86 86h-4z" />
<glyph unicode="&#x2012;" d="M31 716q0 81 65 160q69 87 154 87h813q57 0 107.5 -32t80.5 -83l60 -60q41 -41 58 -88t17 -81q0 -131 -97 -213q-52 -44 -124 -44h-805q-50 0 -94 23q-31 20 -53 43l-53 53q-129 85 -129 235zM72 730.5q0 -55.5 17 -107.5t93 -105q33 -18 76 -18h805q59 0 103 37.5 t63.5 88t19.5 89.5t-14 69q-18 59 -66.5 98.5t-105.5 39.5h-805q-73 4 -131 -68q-55 -68 -55 -123.5zM176 471l90 -86l-86 86h-4z" />
<glyph unicode="&#x2013;" horiz-adv-x="1088" d="M31 716q0 81 49 160q52 87 117 87h614q43 0 81 -32t61 -83l45 -60q31 -41 44 -88t13 -81q0 -131 -73 -213q-40 -44 -94 -44h-608q-38 0 -71 23q-24 20 -40 43l-41 53q-97 85 -97 235zM62 730.5q0 -55.5 13 -107.5t70 -105q25 -18 58 -18h608q44 0 77.5 37.5t48 88 t14.5 89.5t-10 69q-14 59 -50.5 98.5t-79.5 39.5h-608q-56 4 -99 -68q-42 -68 -42 -123.5zM141 471l68 -86l-65 86h-3z" />
<glyph unicode="&#x2014;" horiz-adv-x="2112" d="M31 716q0 81 98 160q105 87 233 87h1229q86 0 162.5 -32t121.5 -83l91 -60q62 -41 87.5 -88t25.5 -81q0 -131 -147 -213q-78 -44 -187 -44h-1217q-75 0 -142 23q-47 20 -80 43l-80 53q-195 85 -195 235zM93 730.5q0 -55.5 25.5 -107.5t140.5 -105q50 -18 115 -18h1217 q89 0 155.5 37.5t96 88t29.5 89.5t-21 69q-27 59 -100.5 98.5t-159.5 39.5h-1217q-110 4 -198 -68q-83 -68 -83 -123.5zM250 471l136 -86l-130 86h-6z" />
<glyph unicode="&#x202f;" horiz-adv-x="344" />
<glyph unicode="&#x205f;" horiz-adv-x="430" />
<glyph unicode="&#xe000;" horiz-adv-x="1464" d="M0 0v1464h1464v-1464h-1464z" />
<glyph unicode="&#xe001;" horiz-adv-x="2048" />
</font>
</defs>
</svg>
